<svg id="Illustration" xmlns="http://www.w3.org/2000/svg" xmlns:xlink="http://www.w3.org/1999/xlink" viewBox="0 0 2150.91 1310.71"><defs><style>.cls-1{fill:url(#linear-gradient);}.cls-2{fill:#91b3fa;}.cls-3{fill:#dce5fe;}.cls-4{fill:#bdd0fb;}.cls-5{fill:#f0f0f0;}.cls-6{fill:url(#linear-gradient-2);}.cls-7{fill:url(#linear-gradient-3);}.cls-8{fill:url(#linear-gradient-4);}.cls-9{fill:url(#linear-gradient-5);}.cls-10{fill:url(#linear-gradient-6);}.cls-11,.cls-13,.cls-71{fill:#fff;}.cls-11{opacity:0.84;}.cls-12{fill:#7d97f4;}.cls-14{fill:url(#linear-gradient-7);}.cls-15{fill:url(#linear-gradient-8);}.cls-16{fill:url(#linear-gradient-9);}.cls-17{fill:url(#linear-gradient-10);}.cls-18{fill:url(#linear-gradient-11);}.cls-19{fill:url(#linear-gradient-12);}.cls-20{fill:url(#linear-gradient-13);}.cls-21{fill:url(#linear-gradient-14);}.cls-22{fill:url(#linear-gradient-15);}.cls-23{fill:url(#linear-gradient-16);}.cls-24{fill:url(#linear-gradient-17);}.cls-25{fill:url(#linear-gradient-18);}.cls-26{fill:url(#linear-gradient-19);}.cls-27{fill:url(#linear-gradient-20);}.cls-28{fill:url(#linear-gradient-21);}.cls-29{fill:url(#linear-gradient-22);}.cls-30{fill:url(#linear-gradient-23);}.cls-31{fill:url(#linear-gradient-24);}.cls-32{fill:url(#linear-gradient-25);}.cls-33{fill:url(#linear-gradient-26);}.cls-34{fill:url(#linear-gradient-27);}.cls-35{fill:url(#linear-gradient-28);}.cls-36{fill:url(#linear-gradient-29);}.cls-37{fill:url(#linear-gradient-30);}.cls-38{fill:url(#linear-gradient-31);}.cls-39{fill:url(#linear-gradient-32);}.cls-40{fill:url(#linear-gradient-33);}.cls-41{fill:url(#linear-gradient-34);}.cls-42{fill:url(#linear-gradient-35);}.cls-43{fill:url(#linear-gradient-36);}.cls-44{fill:url(#linear-gradient-37);}.cls-45{fill:url(#linear-gradient-38);}.cls-46{fill:url(#linear-gradient-39);}.cls-47{fill:url(#linear-gradient-40);}.cls-48{fill:url(#linear-gradient-41);}.cls-49{fill:url(#linear-gradient-42);}.cls-50{fill:url(#linear-gradient-43);}.cls-51{fill:url(#linear-gradient-44);}.cls-52{fill:url(#linear-gradient-45);}.cls-53{fill:url(#linear-gradient-46);}.cls-54{fill:url(#linear-gradient-47);}.cls-55{fill:url(#linear-gradient-48);}.cls-56{fill:url(#linear-gradient-49);}.cls-57{fill:url(#linear-gradient-50);}.cls-58{fill:url(#linear-gradient-51);}.cls-59{fill:url(#linear-gradient-52);}.cls-60{fill:url(#linear-gradient-53);}.cls-61{fill:url(#linear-gradient-54);}.cls-62{fill:url(#linear-gradient-55);}.cls-63{fill:url(#linear-gradient-56);}.cls-64{fill:url(#linear-gradient-57);}.cls-65{fill:url(#linear-gradient-58);}.cls-66{fill:url(#linear-gradient-59);}.cls-67{fill:url(#linear-gradient-60);}.cls-68{fill:url(#linear-gradient-61);}.cls-69{fill:url(#linear-gradient-62);}.cls-70{fill:url(#linear-gradient-63);}.cls-71{opacity:0.77;}</style><linearGradient id="linear-gradient" x1="162.05" y1="840.64" x2="2175.81" y2="840.64" gradientUnits="userSpaceOnUse"><stop offset="0" stop-color="#dae3fe"/><stop offset="1" stop-color="#e9effd"/></linearGradient><linearGradient id="linear-gradient-2" x1="1168.47" y1="1400.53" x2="1477.09" y2="474.68" gradientUnits="userSpaceOnUse"><stop offset="0" stop-color="#09005d"/><stop offset="1" stop-color="#1a0f91"/></linearGradient><linearGradient id="linear-gradient-3" x1="747.52" y1="1469.06" x2="1806.63" y2="670.98" gradientUnits="userSpaceOnUse"><stop offset="0" stop-color="#4042e2"/><stop offset="1" stop-color="#4f52ff"/></linearGradient><linearGradient id="linear-gradient-4" x1="1724.06" y1="1129.79" x2="350.9" y2="1463.8" xlink:href="#linear-gradient-2"/><linearGradient id="linear-gradient-5" x1="1316.59" y1="462.77" x2="1126.11" y2="1705.31" gradientUnits="userSpaceOnUse"><stop offset="0" stop-color="#fe7062"/><stop offset="1" stop-color="#ff928e"/></linearGradient><linearGradient id="linear-gradient-6" x1="1693.69" y1="384.14" x2="1599.69" y2="508.14" xlink:href="#linear-gradient-5"/><linearGradient id="linear-gradient-7" x1="778.67" y1="1264.43" x2="877.91" y2="1264.43" gradientTransform="translate(-142.47)" xlink:href="#linear-gradient-5"/><linearGradient id="linear-gradient-8" x1="569.94" y1="1267.46" x2="684.9" y2="1267.46" gradientTransform="translate(-142.47)" xlink:href="#linear-gradient-5"/><linearGradient id="linear-gradient-9" x1="649.23" y1="1142.52" x2="810.8" y2="1142.52" gradientTransform="translate(-142.47)" xlink:href="#linear-gradient-5"/><linearGradient id="linear-gradient-10" x1="652.17" y1="1142.52" x2="807.87" y2="1142.52" gradientTransform="translate(-142.47)" xlink:href="#linear-gradient-5"/><linearGradient id="linear-gradient-11" x1="649.23" y1="1226.68" x2="810.8" y2="1226.68" gradientTransform="translate(-142.47)" xlink:href="#linear-gradient-5"/><linearGradient id="linear-gradient-12" x1="630.97" y1="1226.68" x2="824.45" y2="1226.68" gradientTransform="translate(-142.47)" xlink:href="#linear-gradient-5"/><linearGradient id="linear-gradient-13" x1="649.23" y1="1310.85" x2="810.8" y2="1310.85" gradientTransform="translate(-142.47)" xlink:href="#linear-gradient-5"/><linearGradient id="linear-gradient-14" x1="612.48" y1="1310.85" x2="841.85" y2="1310.85" gradientTransform="translate(-142.47)" xlink:href="#linear-gradient-5"/><linearGradient id="linear-gradient-15" x1="594.95" y1="1395.01" x2="810.8" y2="1395.01" gradientTransform="translate(-142.47)" xlink:href="#linear-gradient-5"/><linearGradient id="linear-gradient-16" x1="594.95" y1="1395.01" x2="855.92" y2="1395.01" gradientTransform="translate(-142.47)" xlink:href="#linear-gradient-5"/><linearGradient id="linear-gradient-17" x1="665.37" y1="1129.14" x2="698.37" y2="1129.14" gradientTransform="translate(-142.47)" xlink:href="#linear-gradient-2"/><linearGradient id="linear-gradient-18" x1="668.72" y1="1113.81" x2="682.1" y2="1113.81" gradientTransform="translate(-142.47)" gradientUnits="userSpaceOnUse"><stop offset="0" stop-color="#ff928e"/><stop offset="1" stop-color="#feb3b1"/></linearGradient><linearGradient id="linear-gradient-19" x1="735.55" y1="1128.61" x2="787.33" y2="1128.61" gradientTransform="translate(-142.47)" xlink:href="#linear-gradient-2"/><linearGradient id="linear-gradient-20" x1="736.34" y1="1107.86" x2="749.65" y2="1107.86" xlink:href="#linear-gradient-18"/><linearGradient id="linear-gradient-21" x1="559.99" y1="1288.08" x2="563.99" y2="946.08" xlink:href="#linear-gradient-2"/><linearGradient id="linear-gradient-22" x1="538.02" y1="924.81" x2="556.94" y2="924.81" xlink:href="#linear-gradient-3"/><linearGradient id="linear-gradient-23" x1="651.15" y1="721.54" x2="673.82" y2="624.88" xlink:href="#linear-gradient-5"/><linearGradient id="linear-gradient-24" x1="769.7" y1="593.88" x2="690.01" y2="768.59" gradientTransform="matrix(1, 0, 0, 1, 0, 0)" xlink:href="#linear-gradient-18"/><linearGradient id="linear-gradient-25" x1="898.56" y1="551.06" x2="563.56" y2="872.11" gradientUnits="userSpaceOnUse"><stop offset="0" stop-color="#e1473d"/><stop offset="1" stop-color="#e9605a"/></linearGradient><linearGradient id="linear-gradient-26" x1="952.02" y1="729.03" x2="812.02" y2="872.03" xlink:href="#linear-gradient-18"/><linearGradient id="linear-gradient-27" x1="967.01" y1="743.71" x2="827.01" y2="886.71" xlink:href="#linear-gradient-18"/><linearGradient id="linear-gradient-28" x1="817.16" y1="648.54" x2="713.64" y2="838.75" xlink:href="#linear-gradient-18"/><linearGradient id="linear-gradient-29" x1="368.9" y1="3512.5" x2="323.15" y2="3573.03" gradientTransform="translate(-1684.99 -1973.39) rotate(-35.22)" xlink:href="#linear-gradient-18"/><linearGradient id="linear-gradient-30" x1="-1778.8" y1="628.7" x2="-1773.69" y2="817.67" gradientTransform="matrix(-1, 0, 0, 1, -1139.05, 0)" xlink:href="#linear-gradient-25"/><linearGradient id="linear-gradient-31" x1="301.9" y1="3560.43" x2="338.59" y2="3522.78" gradientTransform="translate(-1684.99 -1973.39) rotate(-35.22)" xlink:href="#linear-gradient-18"/><linearGradient id="linear-gradient-32" x1="1909.42" y1="616.38" x2="1948.71" y2="657.41" xlink:href="#linear-gradient-2"/><linearGradient id="linear-gradient-33" x1="1848.78" y1="575.67" x2="1889.69" y2="421.57" xlink:href="#linear-gradient-3"/><linearGradient id="linear-gradient-34" x1="1961.54" y1="719.38" x2="2035.87" y2="773.93" xlink:href="#linear-gradient-2"/><linearGradient id="linear-gradient-35" x1="1841.95" y1="683.94" x2="1819.8" y2="947.58" xlink:href="#linear-gradient-3"/><linearGradient id="linear-gradient-36" x1="1812.12" y1="567.55" x2="1787.75" y2="665.76" gradientTransform="matrix(1, 0, 0, 1, 0, 0)" xlink:href="#linear-gradient-18"/><linearGradient id="linear-gradient-37" x1="1783.65" y1="453.04" x2="1527.73" y2="787.7" xlink:href="#linear-gradient-2"/><linearGradient id="linear-gradient-38" x1="1782.63" y1="572.38" x2="1883.49" y2="434.4" gradientTransform="matrix(1, 0, 0, 1, 0, 0)" xlink:href="#linear-gradient-18"/><linearGradient id="linear-gradient-39" x1="1730.08" y1="426.36" x2="1687.25" y2="525.31" gradientTransform="matrix(1, 0, 0, 1, 0, 0)" xlink:href="#linear-gradient-18"/><linearGradient id="linear-gradient-40" x1="1734.51" y1="357.2" x2="1734.51" y2="446.55" gradientTransform="matrix(1, 0, 0, 1, 0, 0)" xlink:href="#linear-gradient-18"/><linearGradient id="linear-gradient-41" x1="1725.97" y1="329.71" x2="1741.2" y2="416.54" xlink:href="#linear-gradient-2"/><linearGradient id="linear-gradient-42" x1="1715.05" y1="357.2" x2="1715.05" y2="446.55" gradientTransform="matrix(1, 0, 0, 1, 0, 0)" xlink:href="#linear-gradient-18"/><linearGradient id="linear-gradient-43" x1="1857.63" y1="541.16" x2="1934.38" y2="541.16" xlink:href="#linear-gradient-2"/><linearGradient id="linear-gradient-44" x1="1866.94" y1="574.71" x2="1805.58" y2="591.53" xlink:href="#linear-gradient-2"/><linearGradient id="linear-gradient-45" x1="1817.97" y1="408.78" x2="1726.6" y2="564.24" xlink:href="#linear-gradient-3"/><linearGradient id="linear-gradient-46" x1="1789.99" y1="392.33" x2="1698.62" y2="547.79" xlink:href="#linear-gradient-3"/><linearGradient id="linear-gradient-47" x1="1779.86" y1="386.38" x2="1688.49" y2="541.84" xlink:href="#linear-gradient-3"/><linearGradient id="linear-gradient-48" x1="1823.98" y1="963.36" x2="1854.31" y2="963.36" xlink:href="#linear-gradient"/><linearGradient id="linear-gradient-49" x1="1717.57" y1="934.55" x2="1809.35" y2="934.55" xlink:href="#linear-gradient"/><linearGradient id="linear-gradient-50" x1="1617.25" y1="922.73" x2="1696.91" y2="922.73" xlink:href="#linear-gradient"/><linearGradient id="linear-gradient-51" x1="1772.58" y1="982.44" x2="1815.89" y2="982.44" xlink:href="#linear-gradient"/><linearGradient id="linear-gradient-52" x1="1619.96" y1="962.14" x2="1747.72" y2="962.14" xlink:href="#linear-gradient"/><linearGradient id="linear-gradient-53" x1="1795.61" y1="1030.74" x2="1829.2" y2="1030.74" xlink:href="#linear-gradient"/><linearGradient id="linear-gradient-54" x1="1687.08" y1="1006.95" x2="1778.69" y2="1006.95" xlink:href="#linear-gradient"/><linearGradient id="linear-gradient-55" x1="1622.62" y1="999.87" x2="1670.08" y2="999.87" xlink:href="#linear-gradient"/><linearGradient id="linear-gradient-56" x1="1976.86" y1="1334.43" x2="1961.31" y2="1437.06" gradientUnits="userSpaceOnUse"><stop offset="0" stop-color="#020039"/><stop offset="1" stop-color="#090056"/></linearGradient><linearGradient id="linear-gradient-57" x1="1970.72" y1="1380.64" x2="1937.55" y2="1501.47" xlink:href="#linear-gradient-3"/><linearGradient id="linear-gradient-58" x1="1969.49" y1="1380.3" x2="1936.33" y2="1501.13" xlink:href="#linear-gradient-3"/><linearGradient id="linear-gradient-59" x1="1966.41" y1="1379.46" x2="1933.24" y2="1500.28" xlink:href="#linear-gradient-3"/><linearGradient id="linear-gradient-60" x1="1965.58" y1="1379.23" x2="1932.42" y2="1500.06" xlink:href="#linear-gradient-3"/><linearGradient id="linear-gradient-61" x1="1929.08" y1="1098.41" x2="2154.94" y2="1514.46" xlink:href="#linear-gradient-5"/><linearGradient id="linear-gradient-62" x1="1993.71" y1="1244.94" x2="2001.15" y2="1481.51" xlink:href="#linear-gradient-25"/><linearGradient id="linear-gradient-63" x1="1952.69" y1="1246.23" x2="1960.13" y2="1482.81" xlink:href="#linear-gradient-25"/></defs><path class="cls-1" d="M520.14,271.7c-156.2,129.09,52.6,294.8-55.57,367.14s-556.18,213.42-105,493.31,463.56,465.34,785.63,288.12,298.93-209.06,564-89.26S2251.2,1264.42,2157,1043.2s-154.15-218.46-46.6-359.73-60.64-532.21-430.86-230.09S1077.61,529.94,1037,417,767,67.69,520.14,271.7Z" transform="translate(-162.05 -191.51)"/><path class="cls-2" d="M1843.06,1486.1S1918.8,1160.68,2112,929.84c35.49-42.41,104.32-17.69,104.59,37.61C2217.38,1128.25,2166.15,1391.28,1843.06,1486.1Z" transform="translate(-162.05 -191.51)"/><path class="cls-3" d="M2168,964.12c-5.74,24.45-13.2,48.29-21.22,72s-17,47.06-26.79,70.11a1116.43,1116.43,0,0,1-67.31,134.28c-12.84,21.54-26.2,42.79-40.63,63.31-7.06,10.37-14.69,20.35-22.09,30.47-7.73,9.89-15.32,19.88-23.5,29.4a696.68,696.68,0,0,1-107.24,105,2.7,2.7,0,0,1-3.53-4.09l0,0a944.47,944.47,0,0,0,99.8-109.73c7.72-9.64,14.83-19.76,22.29-29.61,7.08-10.12,14.38-20.08,21.12-30.44,3.38-5.18,7-10.21,10.26-15.43l10-15.59c3.31-5.22,6.48-10.53,9.72-15.78s6.39-10.58,9.49-15.93c6.35-10.61,12.39-21.39,18.48-32.16,5.89-10.87,11.79-21.74,17.44-32.74,11.53-21.9,22.22-44.23,32.68-66.68s20.23-45.24,29.52-68.23,18.19-46.21,26.24-69.6l0-.08a2.7,2.7,0,0,1,5.18,1.5Z" transform="translate(-162.05 -191.51)"/><path class="cls-4" d="M1912.13,1462.28s158.61-227.91,335.86-286c43.94-14.4,81.7,34,57.27,73.21C2255.65,1329.22,2145.86,1439,1912.13,1462.28Z" transform="translate(-162.05 -191.51)"/><path class="cls-3" d="M2288.43,1211.23c-13.6,12.37-27.54,24.22-41.66,35.92q-10.67,8.65-21.41,17.22c-7.24,5.62-14.41,11.33-21.7,16.86q-43.71,33.35-89.64,63.62c-15.19,10.24-30.86,19.77-46.34,29.57l-23.62,14.06c-3.94,2.33-7.86,4.7-11.84,7l-12,6.67c-31.81,18.24-64.82,34.28-98,49.76a2.31,2.31,0,0,1-2-4.17l.06,0,24.55-12.13,12.27-6.06c4.06-2.08,8.06-4.28,12.09-6.42l24.18-12.83c8-4.42,15.89-9,23.84-13.47l11.9-6.76,11.74-7,23.48-14.08c15.39-9.81,31-19.34,46.06-29.6,15.28-10,30.27-20.41,45.26-30.82l22.25-16,22-16.29c7.33-5.43,14.53-11,21.81-16.56s14.37-11.26,21.52-16.93c14.25-11.39,28.43-23,42.12-34.93l0,0a2.31,2.31,0,0,1,3.08,3.45Z" transform="translate(-162.05 -191.51)"/><path class="cls-4" d="M724.85,1352.94c-72.33,14.46-164.7-64.4-194.46-150.55-30.63-88.67,25.52-125.81,25.09-248.84C555,813.79,482.29,792.73,434.2,604.35c-10.85-42.5-73.64-288.46,4.18-334.57,71.95-42.62,274,79.71,309.48,236.29,25.25,111.65-52.83,158.53-23,288.56,26.17,114.1,94.94,115.75,121.28,225.84C878.21,1154.48,819.83,1334,724.85,1352.94Z" transform="translate(-162.05 -191.51)"/><path class="cls-3" d="M719.6,1386.8c19.5-150.58-18.54-382.89-53.89-551.25-38.26-182.29-81.69-331-82.13-332.45l-6,1.76c.44,1.48,43.81,150,82,332,35.24,167.88,73.17,399.42,53.79,549.11Z" transform="translate(-162.05 -191.51)"/><path class="cls-2" d="M654.75,1407.77c94.88-49.44,127.36-219.21,73.42-274.39-36.44-37.28-88.7,1.94-139.12-36.71-64.37-49.34-17-142.27-67.63-262.79C478.35,731.32,375,634.27,314.67,654.18c-63.2,20.85-96.48,175.51-42.51,268.59,35.09,60.53,88.82,63.5,100.47,119.8,13.53,65.32-51.81,95.11-52.17,158.44C319.82,1314.77,529.22,1473.17,654.75,1407.77Z" transform="translate(-162.05 -191.51)"/><path class="cls-3" d="M603.54,1451.24a3.8,3.8,0,0,0,1.69-.39,3.86,3.86,0,0,0,1.79-5.16c-125.79-259.2-162.68-559.91-163-562.91a3.86,3.86,0,0,0-7.67.91c.36,3,37.4,305,163.75,565.37A3.87,3.87,0,0,0,603.54,1451.24Z" transform="translate(-162.05 -191.51)"/><path class="cls-3" d="M345.47,960.65a1.87,1.87,0,0,0,1.13-.39,1.85,1.85,0,0,0,.32-2.59c-39.7-51-83.71-127.53-67.87-202.89,9.44-44.87,36-68.28,36.26-68.51a1.85,1.85,0,1,0-2.42-2.79c-1.13,1-27.76,24.46-37.45,70.55-8.91,42.35-4.24,112.46,68.57,205.91A1.83,1.83,0,0,0,345.47,960.65Z" transform="translate(-162.05 -191.51)"/><path class="cls-5" d="M663.3,1385.13a1.83,1.83,0,0,0,1.52-.8c61-89.06,81.83-157.87,61.85-204.52-17.77-41.48-62.62-49.2-63.07-49.27a1.84,1.84,0,1,0-.59,3.64c.43.07,43.35,7.51,60.28,47.13,19.42,45.41-1.27,113-61.51,200.93a1.85,1.85,0,0,0,.48,2.57A1.82,1.82,0,0,0,663.3,1385.13Z" transform="translate(-162.05 -191.51)"/><path class="cls-6" d="M1965.35,1434.12a24.22,24.22,0,0,1-24.16,24.14H634.47a24.22,24.22,0,0,1-24.16-24.14L599.43,683.19c0-13.28,15.65-39.2,44.31-37.25l1277.07-33.05a60.9,60.9,0,0,1,62.49,62.28Z" transform="translate(-162.05 -191.51)"/><path class="cls-7" d="M1941.5,1411a22.93,22.93,0,0,1-22.87,22.86H666A22.93,22.93,0,0,1,643.12,1411l-10.26-681.7c1.21-41,37.18-55.77,59-54.9l1223.95-32.84a42.81,42.81,0,0,1,43.91,43.8Z" transform="translate(-162.05 -191.51)"/><path class="cls-4" d="M656.66,1085.6a1.85,1.85,0,0,1-1.85-1.82l-.81-55.29a1.84,1.84,0,0,1,1.82-1.87,1.92,1.92,0,0,1,1.87,1.82l.82,55.28a1.86,1.86,0,0,1-1.82,1.88Z" transform="translate(-162.05 -191.51)"/><path class="cls-4" d="M654.67,950.12a1.85,1.85,0,0,1-1.85-1.82l-3.11-211.74c.07-14.14,4.42-25.44,12.95-33.61,15.52-14.87,39.8-14.12,40.82-14.08l390.87-10.49a1.85,1.85,0,0,1,.1,3.69l-391,10.49c-1.1,0-23.86-.74-38.26,13.06-7.78,7.45-11.75,17.85-11.81,30.92l3.11,211.71a1.84,1.84,0,0,1-1.82,1.87Z" transform="translate(-162.05 -191.51)"/><rect class="cls-8" x="368.74" y="1239.1" width="1540.57" height="65.98" rx="7.51"/><path class="cls-9" d="M1583.26,368.39,863,364a41.23,41.23,0,0,0-41.43,43.27l49.55,1023.36h801.55l44.5-914.31Z" transform="translate(-162.05 -191.51)"/><path class="cls-10" d="M1613.21,511.91a41.23,41.23,0,0,1-39.65-44.45l7.72-97.72,136,146Z" transform="translate(-162.05 -191.51)"/><path class="cls-11" d="M1541.51,498.54H1153.66a20.32,20.32,0,0,0,0,40.63h387.85a20.32,20.32,0,1,0,0-40.63Z" transform="translate(-162.05 -191.51)"/><path class="cls-11" d="M1553.82,590.88H1154.28c-11.56,0-20.93,9.1-20.93,20.32s9.37,20.31,20.93,20.31h399.54c11.56,0,20.93-9.09,20.93-20.31S1565.38,590.88,1553.82,590.88Z" transform="translate(-162.05 -191.51)"/><path class="cls-11" d="M1553.82,670.3H1154.28c-11.56,0-20.93,9.09-20.93,20.31s9.37,20.32,20.93,20.32h399.54c11.56,0,20.93-9.1,20.93-20.32S1565.38,670.3,1553.82,670.3Z" transform="translate(-162.05 -191.51)"/><path class="cls-11" d="M1553.82,749.71H1154.28c-11.56,0-20.93,9.1-20.93,20.32s9.37,20.31,20.93,20.31h399.54c11.56,0,20.93-9.09,20.93-20.31S1565.38,749.71,1553.82,749.71Z" transform="translate(-162.05 -191.51)"/><path class="cls-11" d="M1544.28,873.45H962.51c-16.83,0-30.47,9.1-30.47,20.32s13.64,20.32,30.47,20.32h581.77c16.83,0,30.47-9.1,30.47-20.32S1561.11,873.45,1544.28,873.45Z" transform="translate(-162.05 -191.51)"/><path class="cls-11" d="M1544.28,952.87H962.51c-16.83,0-30.47,9.1-30.47,20.32s13.64,20.31,30.47,20.31h581.77c16.83,0,30.47-9.09,30.47-20.31S1561.11,952.87,1544.28,952.87Z" transform="translate(-162.05 -191.51)"/><path class="cls-11" d="M1544.28,1032.29H962.51c-16.83,0-30.47,9.09-30.47,20.31s13.64,20.32,30.47,20.32h581.77c16.83,0,30.47-9.1,30.47-20.32S1561.11,1032.29,1544.28,1032.29Z" transform="translate(-162.05 -191.51)"/><path class="cls-11" d="M1544.28,1156H962.51c-16.83,0-30.47,9.09-30.47,20.31s13.64,20.32,30.47,20.32h581.77c16.83,0,30.47-9.1,30.47-20.32S1561.11,1156,1544.28,1156Z" transform="translate(-162.05 -191.51)"/><path class="cls-11" d="M1544.28,1235.44H962.51c-16.83,0-30.47,9.1-30.47,20.32s13.64,20.31,30.47,20.31h581.77c16.83,0,30.47-9.09,30.47-20.31S1561.11,1235.44,1544.28,1235.44Z" transform="translate(-162.05 -191.51)"/><path class="cls-11" d="M1544.28,1314.86H962.51c-16.83,0-30.47,9.09-30.47,20.31s13.64,20.32,30.47,20.32h581.77c16.83,0,30.47-9.09,30.47-20.32S1561.11,1314.86,1544.28,1314.86Z" transform="translate(-162.05 -191.51)"/><rect class="cls-12" x="568.68" y="266.4" width="358.29" height="332.44" rx="38.4"/><path class="cls-13" d="M1015.16,752.28H985a15.21,15.21,0,0,1-14.48-10.57l-12.35-38.63a11.08,11.08,0,0,0-10.54-7.7H872.87a11.08,11.08,0,0,0-10.55,7.73l-12.21,38.56a15.19,15.19,0,0,1-14.49,10.61H806a15.21,15.21,0,0,1-14.29-20.41l76.44-210a38.59,38.59,0,0,1,36.26-25.4h14.06a38.6,38.6,0,0,1,36.36,25.67L1029.49,732A15.21,15.21,0,0,1,1015.16,752.28Zm-76.55-114-24-78.84a5.07,5.07,0,0,0-9.73.07c-6.32,22.08-17.74,59.2-23.79,78.73a10,10,0,0,0,9.52,12.91h38.47A10,10,0,0,0,938.61,638.28Z" transform="translate(-162.05 -191.51)"/><path class="cls-4" d="M754.74,676.76h-1.85V522a36.42,36.42,0,0,1,36.38-36.38h66.12v1.85H789.27A34.57,34.57,0,0,0,754.74,522Z" transform="translate(-162.05 -191.51)"/><path class="cls-14" d="M729.78,1502.22a5.52,5.52,0,0,1-5.57-4.21l-87.93-465.47c-.52-2.75,1.56-5.35,4.63-5.82s6,1.39,6.52,4.14l87.93,465.47c.52,2.75-1.55,5.35-4.63,5.82A6.16,6.16,0,0,1,729.78,1502.22Z" transform="translate(-162.05 -191.51)"/><path class="cls-15" d="M433.13,1502.22a6.14,6.14,0,0,1-1.12-.1c-3.06-.55-5-3.22-4.43-5.95l103.66-459.41a5.65,5.65,0,0,1,6.66-4c3.06.55,5,3.21,4.42,5.94L438.67,1498.17A5.54,5.54,0,0,1,433.13,1502.22Z" transform="translate(-162.05 -191.51)"/><path class="cls-16" d="M662.69,1147.57H512.42c-3.12,0-5.65-2.26-5.65-5s2.53-5,5.65-5H662.69c3.12,0,5.65,2.26,5.65,5S665.81,1147.57,662.69,1147.57Z" transform="translate(-162.05 -191.51)"/><path class="cls-17" d="M660,1147.57H515.15a5.06,5.06,0,1,1,0-10.1H660a5.06,5.06,0,1,1,0,10.1Z" transform="translate(-162.05 -191.51)"/><path class="cls-18" d="M662.69,1231.73H512.42c-3.12,0-5.65-2.26-5.65-5s2.53-5,5.65-5H662.69c3.12,0,5.65,2.27,5.65,5S665.81,1231.73,662.69,1231.73Z" transform="translate(-162.05 -191.51)"/><path class="cls-19" d="M676.33,1231.73H494.15c-3.12,0-5.65-2.26-5.65-5s2.53-5,5.65-5H676.33c3.12,0,5.65,2.27,5.65,5S679.45,1231.73,676.33,1231.73Z" transform="translate(-162.05 -191.51)"/><path class="cls-20" d="M662.69,1315.9H512.42c-3.12,0-5.65-2.26-5.65-5.05s2.53-5,5.65-5H662.69c3.12,0,5.65,2.26,5.65,5S665.81,1315.9,662.69,1315.9Z" transform="translate(-162.05 -191.51)"/><path class="cls-21" d="M693.73,1315.9H475.67c-3.12,0-5.65-2.26-5.65-5.05s2.53-5,5.65-5H693.73c3.12,0,5.65,2.26,5.65,5S696.85,1315.9,693.73,1315.9Z" transform="translate(-162.05 -191.51)"/><path class="cls-22" d="M662.69,1400.06H458.14c-3.12,0-5.66-2.26-5.66-5s2.54-5,5.66-5H662.69c3.12,0,5.65,2.26,5.65,5S665.81,1400.06,662.69,1400.06Z" transform="translate(-162.05 -191.51)"/><path class="cls-23" d="M707.81,1400.06H458.14c-3.12,0-5.66-2.26-5.66-5s2.54-5,5.66-5H707.81c3.12,0,5.65,2.26,5.65,5S710.93,1400.06,707.81,1400.06Z" transform="translate(-162.05 -191.51)"/><path class="cls-24" d="M527.5,1117.51s-3.67,5.78-4.59,22a2.64,2.64,0,0,0,2.62,2.79h28.68a1.69,1.69,0,0,0,1.61-2.22c-1.68-5-6.76-17.11-18.1-24Z" transform="translate(-162.05 -191.51)"/><path class="cls-25" d="M526.25,1106.55l1.63,13.6a2.57,2.57,0,0,0,2.23,2.25,22.48,22.48,0,0,0,6.06-.06,4.2,4.2,0,0,0,3.47-4.17V1105Z" transform="translate(-162.05 -191.51)"/><path class="cls-26" d="M598.46,1116a40.07,40.07,0,0,0-5.37,20.25,5.07,5.07,0,0,0,5.1,5h44.54a2.13,2.13,0,0,0,1.23-3.87c-8.43-5.92-25-17-37-21.33Z" transform="translate(-162.05 -191.51)"/><path class="cls-27" d="M593.87,1101.32l3.46,16.8a3.47,3.47,0,0,0,4.1,2.73,12.66,12.66,0,0,0,3.92-1.64,4,4,0,0,0,1.77-4.06l-3.58-20.35Z" transform="translate(-162.05 -191.51)"/><path class="cls-28" d="M532.61,867.76s-12,10.61-14.29,23.37,6.41,220.17,6.41,220.17,12,2,18.23-1.76c0,0,7.36-134.6,12.95-165.71,0,0,29.32,139.44,37.44,164.63,0,0,11.59,1.41,15.33-.79,0,0-7.68-180.75-17.33-212.89Z" transform="translate(-162.05 -191.51)"/><path class="cls-29" d="M555.56,939.53a1.38,1.38,0,0,1-1.34-1l-5-19.08-10.58-6.79a1.38,1.38,0,0,1,1.49-2.33l11.05,7.08a1.41,1.41,0,0,1,.59.82l5.11,19.6a1.39,1.39,0,0,1-1,1.69A1.45,1.45,0,0,1,555.56,939.53Z" transform="translate(-162.05 -191.51)"/><path class="cls-30" d="M651.33,747.92c-50.64-4.21-63.88,6.27-63.88,6.27l24.34,38.43s49.76-1,85.42-28.47a87.19,87.19,0,0,1-14.28-21.31A67.09,67.09,0,0,1,651.33,747.92Z" transform="translate(-162.05 -191.51)"/><path class="cls-31" d="M730.64,673.58a1.55,1.55,0,0,0-2.95-.6l-6.47,13.79a14.31,14.31,0,0,0-1.14,8.55l2.26,8a13.83,13.83,0,0,1-2.82,11c-5.94,7.43-18.59,21-36.59,28.47a87.19,87.19,0,0,0,14.28,21.31c13.08-10.08,24.27-23.73,30.4-42.21a6.78,6.78,0,0,0,4.78-6.74Z" transform="translate(-162.05 -191.51)"/><path class="cls-32" d="M668,770.19c-17.83-19.21-51.79-27.89-71.45-31.45a18,18,0,0,0-20.16,11.43c-8.84,23.79-32.91,85.67-37.57,96.3-3.83,8.73-7.83,17.25-10.36,22.58a6.39,6.39,0,0,0,3,8.52c16.54,8,46.31,17,58.38,20.52a4.14,4.14,0,0,0,5.29-4,12.9,12.9,0,0,1,1.85-6.65l45.7-76.17c28.49,31.59,53.43,34.48,72.6,27.57a144.24,144.24,0,0,1-6.34-29.94C680.61,804.06,668,770.19,668,770.19Z" transform="translate(-162.05 -191.51)"/><path class="cls-33" d="M755.71,803.61l-5.11-6.81c-16.54,11.36-30.37,14.05-41.68,12.11a144.24,144.24,0,0,0,6.34,29.94C740.51,829.74,755.71,803.61,755.71,803.61Z" transform="translate(-162.05 -191.51)"/><path class="cls-34" d="M752.11,803.74l28.78,1.12,26.51-14.8c-3.81-2.39-25.32,2.49-25.32,2.49s-22.49-3.41-28.58-3.41c-5,0-4.33,7.26-3.94,9.72.08.51.15.81.15.81Z" transform="translate(-162.05 -191.51)"/><path class="cls-35" d="M623.6,703.45l-15.19,37.06s17.45,12.08,31.49,10.93l7.58-33.32Z" transform="translate(-162.05 -191.51)"/><path class="cls-36" d="M649.25,678.19c.35.49,11,38.93,11,38.93l-22.08,5.6-15.49-34.93S643.43,669.94,649.25,678.19Z" transform="translate(-162.05 -191.51)"/><path class="cls-37" d="M631,693.1l6.72,19a2.58,2.58,0,0,0,.35.68c.91,1.29,4.37,5.52,8.48,1.71,3.73-3.45,7.18-6.55,10.37-7.11a2.82,2.82,0,0,1,3.21,2A123.41,123.41,0,0,1,663.82,728a2.82,2.82,0,0,1-2.29,3c-4.31.82-13.45,2.29-21.08,1.75a2.8,2.8,0,0,1-2.38-1.64c-2.1-4.59-8.55-18.54-10.94-22.14-2.25-3.39-7.77-3.29-10.08-3.09a2.78,2.78,0,0,1-2.08-.68c-2-1.77-5.87-6.3-.45-11.72a2.82,2.82,0,0,0-.07-4.06c-2.32-2.19-4.81-6.07-.94-10.88s9.14-4.11,12.33-2.95a2.81,2.81,0,0,0,3.39-1.25,2.23,2.23,0,0,1,2.3-1.08,2.77,2.77,0,0,0,3-2.85c0-3.13,1.07-7.09,6.5-8.78,9.65-3,15.66,6.32,16.26,13.27s-10,9.61-16.31,9.14c-4.75-.36-8.28,4.36-9.7,6.64A2.8,2.8,0,0,0,631,693.1Z" transform="translate(-162.05 -191.51)"/><path class="cls-38" d="M629.64,715.88s-1.56-12.07-6.58-12.66-9.9,3.53-4.91,10.31C624.36,722,629.64,715.88,629.64,715.88Z" transform="translate(-162.05 -191.51)"/><path class="cls-39" d="M1898.47,595.18s-10.84.57-12.17,22.87c0,0,25.13,22.53,59.08,27.9,2.55.4-3.56-17.4-4.48-19.81C1936.53,614.66,1922.76,607.27,1898.47,595.18Z" transform="translate(-162.05 -191.51)"/><path class="cls-40" d="M1776.4,569h22.88s70.2-77.53,116.24-85.35c0,0,32,40.91-1.71,117.35-2.71,6.15-10.31,8.88-16,5.27a9.14,9.14,0,0,1-3.65-4.35l2.71-65.27S1837,589,1826.61,599.09,1763.3,603,1776.4,569Z" transform="translate(-162.05 -191.51)"/><path class="cls-41" d="M1997.53,731.74c-9.59-8.4-24.86-17.82-46.9-20.53l-7.46,4.56a80.73,80.73,0,0,0,13.44,14.42c8,4.64,20.31,10.92,30.53,12.28C1997.07,743.8,1998.54,737.79,1997.53,731.74Z" transform="translate(-162.05 -191.51)"/><path class="cls-12" d="M1940.9,626.14c-5.9,1.91-8.5,10.27-23.48,4.74a132.67,132.67,0,0,1-30.82-16.23c-.12,1.07-.23,2.2-.3,3.4,0,0,26.5,25.21,60.45,30.57a3.38,3.38,0,0,0,3.65-4.55A85.07,85.07,0,0,0,1940.9,626.14Z" transform="translate(-162.05 -191.51)"/><path class="cls-12" d="M2004.75,738.91a79,79,0,0,0-7.22-7.17c1,6-.46,12.06-10.39,10.73-10.22-1.36-22.55-7.64-30.53-12.28,10,8.54,25.23,17.59,44.44,17.06A5,5,0,0,0,2004.75,738.91Z" transform="translate(-162.05 -191.51)"/><path class="cls-42" d="M1777.24,585.51l107.11,1.16s61.17,50.61,72.26,127.77c0,0,1.84,5.68-9.22,6.65,0,0-37-24.15-61.09-66.86-29.56-52.35-77.13-33.66-77.13-33.66-57.7,19.67-77.46-9.54-77.94-16.45Z" transform="translate(-162.05 -191.51)"/><path class="cls-43" d="M1779.77,499.23s11.53,57.79,68,80.65l20.09-2.37,4.74,7.56-47.13,1.5s-40.3-16-61.65-59.45C1763.15,525.69,1751.39,501.41,1779.77,499.23Z" transform="translate(-162.05 -191.51)"/><path class="cls-44" d="M1786,584.57s-13.11-35.65-15.93-70.28c0,0,9.59-8.24,15.59-11.8a4.34,4.34,0,0,0,1.69-5.62c-4.41-9.13-31.06-45-33.06-45.48-10.86-2.71-55.37-23.88-86.72,19-13.45,18.41,2.67,75.06,63.71,133.73l2,.39a30.9,30.9,0,0,0,20.1-3Z" transform="translate(-162.05 -191.51)"/><path class="cls-45" d="M1735.43,522.1s36.42,43.14,83,49.44c0,0,12-11,21-7s21.22,21.21,21.22,21.21h-59.8s-56.55-2-84.8-36.28C1718.31,537.42,1725.12,530.25,1735.43,522.1Z" transform="translate(-162.05 -191.51)"/><path class="cls-46" d="M1714.17,421.13l-8,26.59a2.93,2.93,0,0,0,1.14,3.25c3.84,2.63,13.87,7.86,27.62,2.78a4.32,4.32,0,0,0,2.79-3.73l1.89-23.15Z" transform="translate(-162.05 -191.51)"/><path class="cls-47" d="M1760.85,399.6s-3.92,27.56-14.51,36-31.21,2.1-38.17-18.68l13.88-35.52Z" transform="translate(-162.05 -191.51)"/><path class="cls-48" d="M1720.48,404.42a1.37,1.37,0,0,0,1.78-1.1c.38-2.54,1.33-7.57,3.26-11,0,0-1-3.62,9.14,1.84s25.39,13.49,34.36,8.71c8.75-4.66,17.61-28.1-5.51-23.76a1.36,1.36,0,0,1-1.62-1.43c.28-3.85-.1-12.71-9.08-15.56-8.4-2.66-13,1.13-14.89,3.42a1.36,1.36,0,0,1-2.12,0c-2.52-3.29-9.35-10.28-19.41-5.85-8.29,3.65-9.58,8.76-9.44,11.94a1.36,1.36,0,0,1-1.94,1.3c-2.54-1.17-6.62-1.78-10.53,3.12-5.4,6.77,2.32,12.65,4.64,14.18a1.41,1.41,0,0,1,.62,1.13c0,3.52.57,18.89,8.27,27.55a1.38,1.38,0,0,0,2.29-.39l5.92-14.13a1.38,1.38,0,0,1,1.69-.77Z" transform="translate(-162.05 -191.51)"/><path class="cls-49" d="M1720.61,407.29s-3.62-14.75-9.12-10,1.43,15.32,7.73,17.33Z" transform="translate(-162.05 -191.51)"/><path class="cls-50" d="M1857.63,589l26.85-89.54a9.17,9.17,0,0,1,8.15-6.51l36.25-2.48a5.15,5.15,0,0,1,5.2,6.84l-30,85.51a7.52,7.52,0,0,1-6.34,5l-35.7,4Z" transform="translate(-162.05 -191.51)"/><path class="cls-51" d="M1862,591.82h-.18L1785.78,588a3.41,3.41,0,1,1,.34-6.81l76.07,3.85a3.41,3.41,0,0,1-.17,6.81Z" transform="translate(-162.05 -191.51)"/><path class="cls-52" d="M1770,515h0a.69.69,0,0,1-.68-.69c.05-15.88-6.08-37-6.14-37.18a.67.67,0,0,1,.46-.84.68.68,0,0,1,.85.46c.06.21,6.24,21.49,6.19,37.57A.68.68,0,0,1,1770,515Z" transform="translate(-162.05 -191.51)"/><path class="cls-53" d="M1735.43,522.78a.66.66,0,0,1-.54-.26c-.17-.21-16.81-21.36-22.53-35.87a.67.67,0,0,1,.38-.88.66.66,0,0,1,.88.38c5.66,14.32,22.18,35.32,22.34,35.53a.69.69,0,0,1-.11,1A.68.68,0,0,1,1735.43,522.78Z" transform="translate(-162.05 -191.51)"/><path class="cls-54" d="M1712,555.14l-.51-.22c-24.09-10.31-39-39.08-39.12-39.36a.69.69,0,0,1,.3-.92.68.68,0,0,1,.92.3c.14.28,14.6,28.21,37.94,38.51L1714,550a.69.69,0,0,1,1-.17.68.68,0,0,1,.16.95Z" transform="translate(-162.05 -191.51)"/><path class="cls-2" d="M1491.32,1136s-2.12-255.21,188.21-274.34S1988.08,925.15,1929,999.27s-148,140-227.3,86.73S1539.41,1032.41,1491.32,1136Z" transform="translate(-162.05 -191.51)"/><path class="cls-55" d="M1852.46,972.82a1.83,1.83,0,0,1-1-.29c-8.66-5.45-17.57-10.54-26.49-15.14a1.84,1.84,0,1,1,1.69-3.28c9,4.64,18,9.79,26.77,15.3a1.85,1.85,0,0,1-1,3.41Z" transform="translate(-162.05 -191.51)"/><path class="cls-56" d="M1807.5,948.83a2,2,0,0,1-.75-.15,321,321,0,0,0-87.57-24.74,1.85,1.85,0,1,1,.48-3.66,324.42,324.42,0,0,1,88.58,25,1.84,1.84,0,0,1-.74,3.53Z" transform="translate(-162.05 -191.51)"/><path class="cls-57" d="M1619.09,928a1.85,1.85,0,0,1-.44-3.64c.33-.08,33.76-8.23,76.47-6.71a1.84,1.84,0,0,1,1.78,1.91,1.78,1.78,0,0,1-1.91,1.78,307.5,307.5,0,0,0-75.45,6.6A1.74,1.74,0,0,1,1619.09,928Z" transform="translate(-162.05 -191.51)"/><path class="cls-58" d="M1814,993.56a1.93,1.93,0,0,1-1-.29,177,177,0,0,0-39.2-18.36,1.85,1.85,0,0,1,1.18-3.5,181.15,181.15,0,0,1,40,18.74,1.85,1.85,0,0,1-1,3.41Z" transform="translate(-162.05 -191.51)"/><path class="cls-59" d="M1745.88,967.39a1.64,1.64,0,0,1-.38,0c-61.22-12.65-122.81-3.74-123.42-3.65a1.87,1.87,0,0,1-2.1-1.55,1.84,1.84,0,0,1,1.55-2.1c.62-.1,62.86-9.09,124.72,3.68a1.85,1.85,0,0,1-.37,3.66Z" transform="translate(-162.05 -191.51)"/><path class="cls-60" d="M1827.35,1041.22a1.82,1.82,0,0,1-1.1-.37,151.3,151.3,0,0,0-29.54-17.06,1.84,1.84,0,1,1,1.5-3.37,154.94,154.94,0,0,1,30.26,17.47,1.85,1.85,0,0,1-1.12,3.33Z" transform="translate(-162.05 -191.51)"/><path class="cls-61" d="M1776.84,1016.13a1.88,1.88,0,0,1-.57-.09c-24.91-8-54.33-12.94-87.43-14.59a1.84,1.84,0,0,1-1.75-1.93,1.86,1.86,0,0,1,1.93-1.76c33.43,1.67,63.16,6.63,88.38,14.76a1.85,1.85,0,0,1-.56,3.61Z" transform="translate(-162.05 -191.51)"/><path class="cls-62" d="M1624.46,1002.57a1.85,1.85,0,0,1-.19-3.68,434.2,434.2,0,0,1,44-1.71,1.85,1.85,0,0,1,0,3.69h0c-25.6-.17-43.38,1.67-43.56,1.69Z" transform="translate(-162.05 -191.51)"/><path class="cls-63" d="M2012.74,1342.29c-.13-1.68-1.85-3.13-4.74-4.29,3.15-1.74,4.89-3.6,4.74-5.43-.44-5.52-17.94-8.62-39.08-6.91s-37.91,7.56-37.47,13.09c.14,1.67,1.85,3.12,4.75,4.28-3.15,1.74-4.89,3.6-4.75,5.43s1.85,3.13,4.75,4.29c-3.15,1.74-4.89,3.6-4.75,5.42s1.85,3.13,4.75,4.29c-3.15,1.74-4.89,3.6-4.75,5.43.2,2.44,3.74,4.41,9.44,5.7a49.43,49.43,0,0,0,.15,6c.82,10.18,12.28,18.16,27.42,18.16s28.26-10.88,28.41-21.1a52,52,0,0,0-.3-6.66c7.25-2.42,11.66-5.38,11.43-8.24-.13-1.68-1.85-3.13-4.74-4.29,3.15-1.74,4.89-3.6,4.74-5.43-.13-1.67-1.85-3.13-4.74-4.29C2011.15,1346,2012.89,1344.11,2012.74,1342.29Z" transform="translate(-162.05 -191.51)"/><path class="cls-64" d="M1963.88,1375.79a91.23,91.23,0,0,1-16.77-1.38.5.5,0,0,1,.19-1c7.43,1.42,17.35,1.73,27.93.88a120.71,120.71,0,0,0,23.43-4,.5.5,0,0,1,.63.34.51.51,0,0,1-.35.63,120.35,120.35,0,0,1-23.63,4.08C1971.38,1375.63,1967.54,1375.79,1963.88,1375.79Z" transform="translate(-162.05 -191.51)"/><path class="cls-65" d="M1964,1366.06c-8.15,0-15.44-.76-20.58-2.23a.51.51,0,0,1,.28-1c7.32,2.09,19.12,2.74,31.55,1.74s23.77-3.49,30.69-6.68a.51.51,0,0,1,.42.92c-7,3.24-18.61,5.77-31,6.77C1971.44,1365.91,1967.63,1366.06,1964,1366.06Z" transform="translate(-162.05 -191.51)"/><path class="cls-66" d="M1963.88,1356.36c-8.81,0-16.51-.91-21.7-2.62a.5.5,0,0,1-.32-.64.5.5,0,0,1,.64-.32c7.22,2.38,19.45,3.16,32.73,2.09,12.3-1,23.77-3.49,30.69-6.68a.52.52,0,0,1,.67.25.51.51,0,0,1-.25.68c-7,3.23-18.61,5.76-31,6.76C1971.38,1356.2,1967.54,1356.36,1963.88,1356.36Z" transform="translate(-162.05 -191.51)"/><path class="cls-67" d="M1964,1346.64a88,88,0,0,1-18.28-1.66.51.51,0,1,1,.22-1c7.43,1.65,18.12,2.08,29.34,1.18,12.19-1,23.6-3.45,30.53-6.61a.51.51,0,0,1,.67.25.51.51,0,0,1-.25.68c-7,3.2-18.57,5.7-30.87,6.69C1971.43,1346.48,1967.6,1346.64,1964,1346.64Z" transform="translate(-162.05 -191.51)"/><path class="cls-68" d="M1922,1293.25a71.24,71.24,0,0,0-12.8-25c-12.58-15.86-33.11-48.11-35.64-92.13-3.67-64,53.12-96.09,104.94-91.74s102.95,42.94,97.35,102.5c-3.44,36.66-24,64.46-39.23,80.42a84.91,84.91,0,0,0-20.37,36.08c-4.58,16.55-15.49,37.18-41.42,38.43C1941.28,1343.45,1927.35,1312.18,1922,1293.25Z" transform="translate(-162.05 -191.51)"/><path class="cls-69" d="M1983.4,1329.05l18.13-117.93c.38-2.43,1.58-4.07,2.68-3.65s1.7,2.73,1.32,5.17l0,.21-20.65,116.83c-.16.88-.61,1.43-1,1.24S1983.27,1329.9,1983.4,1329.05Z" transform="translate(-162.05 -191.51)"/><path class="cls-70" d="M1964.58,1330l-18.13-117.93c-.37-2.44-1.57-4.07-2.68-3.65s-1.69,2.73-1.32,5.16a1.3,1.3,0,0,0,0,.21l20.65,116.84c.15.88.6,1.43,1,1.24S1964.71,1330.84,1964.58,1330Z" transform="translate(-162.05 -191.51)"/><path class="cls-71" d="M2001.4,1201a1.9,1.9,0,0,0-2.38-.62l-10.09,4.72-3.51-10a2.11,2.11,0,0,0-1.22-1.23,2.51,2.51,0,0,0-3.11.95v0l-8.31,15.13-7.7-21.55v0a2.48,2.48,0,0,0-1.17-1.32,3,3,0,0,0-3.81.75l-11.61,16a1.4,1.4,0,0,0,.41,2,1.94,1.94,0,0,0,2.47-.27l10.22-11.4,9.2,20.5v0a1.56,1.56,0,0,0,.81.79,1.9,1.9,0,0,0,2.4-.62l8.88-14.25,3.35,7.21,0,.06a1.09,1.09,0,0,0,.08.15,1.9,1.9,0,0,0,2.38.62l12-5.6A1.41,1.41,0,0,0,2001.4,1201Z" transform="translate(-162.05 -191.51)"/><path class="cls-11" d="M2037,1252.58a2.77,2.77,0,0,1-2.22-4.42,134.07,134.07,0,0,0,8.38-12.73,2.77,2.77,0,1,1,4.8,2.77,142.07,142.07,0,0,1-8.73,13.26A2.78,2.78,0,0,1,2037,1252.58Z" transform="translate(-162.05 -191.51)"/><path class="cls-11" d="M2051.93,1227a2.65,2.65,0,0,1-1.1-.23,2.77,2.77,0,0,1-1.44-3.65c19.07-43.93,2.64-80.77,2.47-81.14a2.77,2.77,0,0,1,5-2.31c.72,1.59,17.62,39.48-2.43,85.66A2.76,2.76,0,0,1,2051.93,1227Z" transform="translate(-162.05 -191.51)"/></svg>