<svg id="Illustration" xmlns="http://www.w3.org/2000/svg" xmlns:xlink="http://www.w3.org/1999/xlink" viewBox="0 0 1075.35 667.14"><defs><style>.cls-1,.cls-11,.cls-2{opacity:0.5;}.cls-1{fill:url(#linear-gradient);}.cls-2{fill:url(#linear-gradient-2);}.cls-3{fill:url(#linear-gradient-3);}.cls-11,.cls-15,.cls-17,.cls-22,.cls-4{fill:#fff;}.cls-4{opacity:0.57;}.cls-5{fill:url(#linear-gradient-4);}.cls-6{fill:url(#linear-gradient-5);}.cls-7{fill:url(#linear-gradient-6);}.cls-8{fill:url(#linear-gradient-7);}.cls-9{fill:url(#linear-gradient-8);}.cls-10{fill:url(#linear-gradient-9);}.cls-12{fill:url(#linear-gradient-10);}.cls-13{fill:url(#linear-gradient-11);}.cls-14{fill:url(#linear-gradient-12);}.cls-15{opacity:0.65;}.cls-16{fill:url(#linear-gradient-13);}.cls-18{fill:url(#linear-gradient-14);}.cls-19{fill:url(#linear-gradient-15);}.cls-20{fill:url(#linear-gradient-16);}.cls-21{fill:url(#linear-gradient-17);}.cls-22{opacity:0.69;}.cls-23{fill:url(#linear-gradient-18);}.cls-24{fill:url(#linear-gradient-19);}.cls-25{fill:url(#linear-gradient-20);}.cls-26{fill:url(#linear-gradient-21);}.cls-27{fill:url(#linear-gradient-22);}.cls-28{fill:url(#linear-gradient-23);}.cls-29{fill:url(#linear-gradient-24);}.cls-30{fill:url(#linear-gradient-25);}.cls-31{fill:url(#linear-gradient-26);}.cls-32{fill:url(#linear-gradient-27);}.cls-33{fill:url(#linear-gradient-28);}.cls-34{fill:url(#linear-gradient-29);}.cls-35{fill:url(#linear-gradient-30);}.cls-36{fill:url(#linear-gradient-31);}.cls-37{fill:url(#linear-gradient-32);}.cls-38{fill:url(#linear-gradient-33);}.cls-39{fill:url(#linear-gradient-34);}.cls-40{fill:url(#linear-gradient-35);}.cls-41{fill:url(#linear-gradient-36);}.cls-42{fill:url(#linear-gradient-37);}.cls-43{fill:url(#linear-gradient-38);}.cls-44{fill:url(#linear-gradient-39);}.cls-45{fill:url(#linear-gradient-40);}.cls-46{fill:url(#linear-gradient-41);}.cls-47{fill:url(#linear-gradient-42);}.cls-48{fill:url(#linear-gradient-43);}.cls-49{fill:url(#linear-gradient-44);}.cls-50{fill:url(#linear-gradient-45);}.cls-51{fill:url(#linear-gradient-46);}.cls-52{fill:url(#linear-gradient-47);}.cls-53{fill:url(#linear-gradient-48);}.cls-54{fill:url(#linear-gradient-49);}.cls-55{fill:url(#linear-gradient-50);}.cls-56{fill:url(#linear-gradient-51);}.cls-57{fill:url(#linear-gradient-52);}.cls-58{fill:url(#linear-gradient-53);}.cls-59{fill:url(#linear-gradient-54);}.cls-60{fill:url(#linear-gradient-55);}.cls-61{fill:url(#linear-gradient-56);}.cls-62{fill:#e992ec;}</style><linearGradient id="linear-gradient" x1="69.65" y1="410.86" x2="1121.69" y2="410.86" gradientUnits="userSpaceOnUse"><stop offset="0" stop-color="#b37cff"/><stop offset="1" stop-color="#f895e7"/></linearGradient><linearGradient id="linear-gradient-2" x1="-1622.61" y1="406.86" x2="-572.57" y2="406.86" gradientTransform="translate(-501.65 817.44) rotate(180)" xlink:href="#linear-gradient"/><linearGradient id="linear-gradient-3" x1="231.92" y1="81.68" x2="352.11" y2="558.46" gradientUnits="userSpaceOnUse"><stop offset="0" stop-color="#c32b78"/><stop offset="1" stop-color="#593092"/></linearGradient><linearGradient id="linear-gradient-4" x1="2081.6" y1="-4281.4" x2="1991.77" y2="-4633.53" gradientTransform="translate(500.86 5488.33) rotate(-27.82)" gradientUnits="userSpaceOnUse"><stop offset="0" stop-color="#a737d5"/><stop offset="1" stop-color="#ef497a"/></linearGradient><linearGradient id="linear-gradient-5" x1="1050.62" y1="236.36" x2="937.61" y2="666.79" gradientUnits="userSpaceOnUse"><stop offset="0" stop-color="#fdf53f"/><stop offset="1" stop-color="#d93c65"/></linearGradient><linearGradient id="linear-gradient-6" x1="1230.48" y1="381.21" x2="1284.01" y2="381.21" gradientTransform="matrix(0.99, 0.11, -0.11, 0.99, -212.83, -8.24)" gradientUnits="userSpaceOnUse"><stop offset="0" stop-color="#2b3582"/><stop offset="1" stop-color="#150e42"/></linearGradient><linearGradient id="linear-gradient-7" x1="1060.07" y1="308.96" x2="1054.87" y2="536.36" xlink:href="#linear-gradient-5"/><linearGradient id="linear-gradient-8" x1="1141.54" y1="411.37" x2="944.36" y2="880.27" gradientUnits="userSpaceOnUse"><stop offset="0" stop-color="#53d8ff"/><stop offset="1" stop-color="#3840f7"/></linearGradient><linearGradient id="linear-gradient-9" x1="1546.06" y1="121.81" x2="1603.41" y2="121.81" gradientTransform="translate(-376.1 -57.16) rotate(19.28)" xlink:href="#linear-gradient-6"/><linearGradient id="linear-gradient-10" x1="517.75" y1="705.59" x2="508.31" y2="518.68" gradientTransform="matrix(1, 0, 0, 1, 0, 0)" xlink:href="#linear-gradient-6"/><linearGradient id="linear-gradient-11" x1="202.96" y1="456.93" x2="929.05" y2="456.93" gradientTransform="matrix(1, 0, 0, 1, 0, 0)" xlink:href="#linear-gradient-6"/><linearGradient id="linear-gradient-12" x1="403.85" y1="574.81" x2="1070.22" y2="19.5" xlink:href="#linear-gradient-5"/><linearGradient id="linear-gradient-13" x1="587.99" y1="711.78" x2="501.15" y2="902.46" gradientTransform="matrix(1, 0, 0, 1, 0, 0)" xlink:href="#linear-gradient-6"/><linearGradient id="linear-gradient-14" x1="384.89" y1="507.12" x2="842.73" y2="125.59" xlink:href="#linear-gradient-8"/><linearGradient id="linear-gradient-15" x1="483.37" y1="227.29" x2="297.81" y2="481.61" gradientUnits="userSpaceOnUse"><stop offset="0" stop-color="#cb236d"/><stop offset="1" stop-color="#4c246d"/></linearGradient><linearGradient id="linear-gradient-16" x1="492.45" y1="431.42" x2="493.18" y2="507.35" xlink:href="#linear-gradient-15"/><linearGradient id="linear-gradient-17" x1="492.22" y1="431.42" x2="492.95" y2="507.35" xlink:href="#linear-gradient-8"/><linearGradient id="linear-gradient-18" x1="514.98" y1="463.25" x2="216.13" y2="591.15" xlink:href="#linear-gradient-8"/><linearGradient id="linear-gradient-19" x1="770.19" y1="232.95" x2="701.02" y2="327.76" xlink:href="#linear-gradient-5"/><linearGradient id="linear-gradient-20" x1="770.19" y1="338.27" x2="701.02" y2="433.08" xlink:href="#linear-gradient-8"/><linearGradient id="linear-gradient-21" x1="637.54" y1="490.77" x2="988.01" y2="490.77" xlink:href="#linear-gradient-15"/><linearGradient id="linear-gradient-22" x1="12870.07" y1="233.56" x2="12778.1" y2="286.05" gradientTransform="translate(-12430.06)" gradientUnits="userSpaceOnUse"><stop offset="0" stop-color="#f9b776"/><stop offset="1" stop-color="#f47960"/></linearGradient><linearGradient id="linear-gradient-23" x1="-5393.18" y1="-3957.64" x2="-5400.24" y2="-3849.38" gradientTransform="matrix(-0.9, -0.44, -0.44, 0.9, -6157.96, 1458.16)" xlink:href="#linear-gradient-15"/><linearGradient id="linear-gradient-24" x1="12861.17" y1="246.65" x2="13175.85" y2="49.66" xlink:href="#linear-gradient-22"/><linearGradient id="linear-gradient-25" x1="-4186.16" y1="-5537.02" x2="-4193.22" y2="-5428.77" gradientTransform="matrix(-0.79, -0.61, -0.61, 0.79, -6291.12, 2114.63)" xlink:href="#linear-gradient-15"/><linearGradient id="linear-gradient-26" x1="4952.22" y1="167.65" x2="4876.58" y2="250.54" gradientTransform="translate(-4598.36)" xlink:href="#linear-gradient-8"/><linearGradient id="linear-gradient-27" x1="-8814.17" y1="-684.64" x2="-8791.56" y2="-627.91" gradientTransform="matrix(-0.94, -0.33, -0.33, 0.94, -8212.67, -2191.8)" xlink:href="#linear-gradient-6"/><linearGradient id="linear-gradient-28" x1="12764.98" y1="133.31" x2="12548.17" y2="342.44" gradientTransform="translate(-12430.06)" xlink:href="#linear-gradient-5"/><linearGradient id="linear-gradient-29" x1="-6822.52" y1="203.3" x2="-6730.91" y2="203.3" gradientTransform="matrix(-1, 0, 0, 1, -6543.59, 0)" xlink:href="#linear-gradient-22"/><linearGradient id="linear-gradient-30" x1="-8615.4" y1="-470.68" x2="-8610.92" y2="-503.44" gradientTransform="matrix(-1, -0.07, -0.07, 1, -8310.52, 11.24)" xlink:href="#linear-gradient-22"/><linearGradient id="linear-gradient-31" x1="-8851.33" y1="-2293.41" x2="-8809.16" y2="-2368.46" gradientTransform="matrix(-0.55, -0.84, -0.84, 0.55, -6439.6, -6033.19)" xlink:href="#linear-gradient-22"/><linearGradient id="linear-gradient-32" x1="-8842.26" y1="-2358.76" x2="-8821.18" y2="-2305.87" gradientTransform="matrix(-0.55, -0.84, -0.84, 0.55, -6439.6, -6033.19)" xlink:href="#linear-gradient-6"/><linearGradient id="linear-gradient-33" x1="-8842.35" y1="-2288.37" x2="-8800.18" y2="-2363.41" gradientTransform="matrix(-0.55, -0.84, -0.84, 0.55, -6439.6, -6033.19)" xlink:href="#linear-gradient-22"/><linearGradient id="linear-gradient-34" x1="-6862.97" y1="-18.04" x2="-6910.9" y2="-4.9" gradientTransform="matrix(-1, -0.05, -0.05, 1, -6572.49, -118.78)" xlink:href="#linear-gradient-8"/><linearGradient id="linear-gradient-35" x1="4600" y1="194.53" x2="5031.05" y2="158.26" gradientTransform="matrix(-1, 0, 0, 1, 5007.52, 0)" xlink:href="#linear-gradient-6"/><linearGradient id="linear-gradient-36" x1="-6912.15" y1="180.23" x2="-6927.58" y2="203.47" gradientTransform="matrix(-1, 0, 0, 1, -6543.59, 0)" xlink:href="#linear-gradient-8"/><linearGradient id="linear-gradient-37" x1="14946.76" y1="-2689.38" x2="14979.36" y2="-2689.38" gradientTransform="translate(-14152.66 -2834.91) rotate(23.65)" xlink:href="#linear-gradient-8"/><linearGradient id="linear-gradient-38" x1="14946.76" y1="-2683.51" x2="14979.36" y2="-2683.51" gradientTransform="translate(-14152.66 -2834.91) rotate(23.65)" xlink:href="#linear-gradient-8"/><linearGradient id="linear-gradient-39" x1="14948.42" y1="-2700.47" x2="14956.67" y2="-2700.47" gradientTransform="translate(-14152.66 -2834.91) rotate(23.65)" xlink:href="#linear-gradient-22"/><linearGradient id="linear-gradient-40" x1="15239.33" y1="713.08" x2="15271.45" y2="713.08" gradientTransform="matrix(1, -0.03, 0.03, 1, -14724.47, 468.91)" xlink:href="#linear-gradient-8"/><linearGradient id="linear-gradient-41" x1="15239.33" y1="718.8" x2="15271.45" y2="718.8" gradientTransform="matrix(1, -0.03, 0.03, 1, -14724.47, 468.91)" xlink:href="#linear-gradient-8"/><linearGradient id="linear-gradient-42" x1="15620.13" y1="575.68" x2="15630.51" y2="575.68" gradientTransform="translate(-14913.24 -1666.9) rotate(6.69)" xlink:href="#linear-gradient-22"/><linearGradient id="linear-gradient-43" x1="-6286.23" y1="514.93" x2="-6398.3" y2="630.55" gradientTransform="matrix(-0.99, -0.11, -0.11, 0.99, -5645.41, -599.5)" xlink:href="#linear-gradient-15"/><linearGradient id="linear-gradient-44" x1="15696.74" y1="504.55" x2="15662.96" y2="548.23" gradientTransform="translate(-14923.61 -1638.38) rotate(6.39)" xlink:href="#linear-gradient-15"/><linearGradient id="linear-gradient-45" x1="961.53" y1="409.81" x2="802.05" y2="559.68" gradientTransform="translate(-225.67 7.57) rotate(6.39)" xlink:href="#linear-gradient-8"/><linearGradient id="linear-gradient-46" x1="15700.33" y1="435.19" x2="15704.11" y2="411.87" gradientTransform="translate(-14923.61 -1638.38) rotate(6.39)" xlink:href="#linear-gradient-22"/><linearGradient id="linear-gradient-47" x1="15715.06" y1="397.5" x2="15689.77" y2="416.85" gradientTransform="translate(-14923.61 -1638.38) rotate(6.39)" xlink:href="#linear-gradient-22"/><linearGradient id="linear-gradient-48" x1="15697.29" y1="382.23" x2="15720.19" y2="411.71" gradientTransform="translate(-14923.61 -1638.38) rotate(6.39)" xlink:href="#linear-gradient-6"/><linearGradient id="linear-gradient-49" x1="15711.92" y1="393.4" x2="15686.63" y2="412.76" gradientTransform="translate(-14923.61 -1638.38) rotate(6.39)" xlink:href="#linear-gradient-22"/><linearGradient id="linear-gradient-50" x1="733.21" y1="504.66" x2="606.75" y2="601.81" gradientTransform="matrix(1, 0, 0, 1, 0, 0)" xlink:href="#linear-gradient-22"/><linearGradient id="linear-gradient-51" x1="720.66" y1="504.21" x2="625.48" y2="577.34" gradientTransform="matrix(1, 0, 0, 1, 0, 0)" xlink:href="#linear-gradient-22"/><linearGradient id="linear-gradient-52" x1="643.08" y1="537.24" x2="592.88" y2="582.1" xlink:href="#linear-gradient-8"/><linearGradient id="linear-gradient-53" x1="4129.48" y1="-2133.36" x2="4030.59" y2="-2193.3" gradientTransform="matrix(0.97, 0.26, -0.41, 0.83, -4039.67, 870.18)" xlink:href="#linear-gradient-8"/><linearGradient id="linear-gradient-54" x1="4074.6" y1="-2155.52" x2="3961.43" y2="-2275.18" gradientTransform="matrix(0.97, 0.26, -0.41, 0.83, -3970.01, 946.91)" xlink:href="#linear-gradient-8"/><linearGradient id="linear-gradient-55" x1="4122.26" y1="-2134.36" x2="4029.88" y2="-2190.34" gradientTransform="matrix(0.97, 0.26, -0.41, 0.83, -4039.67, 870.18)" xlink:href="#linear-gradient-8"/><linearGradient id="linear-gradient-56" x1="-6834.98" y1="-1883.92" x2="-6792.77" y2="-1896.15" gradientTransform="matrix(-0.97, -0.26, -0.26, 0.97, -6307.92, 173.7)" xlink:href="#linear-gradient-8"/></defs><path class="cls-1" d="M1076,371c-18.07-10.09-40.21-17.33-64-22.85-14-3.25-61.18-5.71-70.06-15.89-19.82-22.73-3.78-50.17,3.11-74.41,16.06-56.52-37.8-101.68-81.16-127.13-42.25-24.79-92-20.4-138.66-14.38-49.89,6.44-97.36,17.8-142.84,39.63-41.52,19.92-83.68,57.29-131.73,58.82-46.63,1.48-82.11-34.34-117.66-59-109.89-76.15-242.37,35.05-231,156.42C108,375.17,149.5,439,96,493.93a91.88,91.88,0,0,0-6.64,7.49C71.48,524.23,68.55,539.35,70,569.81,73.64,649.12,144.56,684.3,214.48,693c60.09,7.48,108.36-37.2,162.56-54,52.24-16.17,108.54,9.15,158.27,24C635.24,692.93,774.19,761,844,644.49c33.44-55.82,77.59-47.85,134.43-50.17,66.21-2.69,115.95-54.73,136.35-115.28C1133.14,424.49,1113.12,391.71,1076,371Z" transform="translate(-69.65 -76.72)"/><path class="cls-2" d="M117.28,447.35A167.85,167.85,0,0,0,153.94,463c25.48,7.67,54.18,5.58,78.67,16.91,38.46,17.8,23.07,50.93,13.68,84-9,31.75,15.42,78.24,37.7,98.58,92.35,84.27,228.25,35.76,330.17,1.54,66.37-22.28,140.78-24.46,209-9.52,60.11,13.17,117.72,50.15,178.32,18,56.4-29.94,93.82-98.67,87.78-162.94-3.36-35.68-20.72-69.54-19.78-105.64.9-34.84,19.61-63.85,36.81-92.93,34.9-59,3.74-136.39-54.66-163-50.88-23.18-114.39-20.48-168.4-12.9-30,4.21-59.9,10.12-89.66,15.79-58.79,11.19-119.16,11.85-177.42-2.84-55.56-14-108.35-39.37-167-35.83-42.78,2.58-79.71,28.2-101.78,65-33.44,55.82-77.59,47.85-134.43,50.17C146.72,230.09,97,282.13,76.57,342.7,60.28,391.08,80.85,426,117.28,447.35Z" transform="translate(-69.65 -76.72)"/><path class="cls-3" d="M480.84,423.73c-14.93-56.05-46.75-101.7-85.67-129.54C360.38,269.31,336.22,232,328.6,190q-1.22-6.63-3-13.31c-17.95-67.41-73.8-111-124.75-97.48s-77.7,79.2-59.75,146.61a163.76,163.76,0,0,0,15.4,38.08c20.67,36.72,27.41,79.87,17.25,120.78-9.07,36.56-9,78.23,2.16,120.25,16.69,62.67,54.5,112.35,99.74,138.65a162,162,0,0,1,44.77,38.35c20.61,25.6,50.74,38.64,79.35,31,30.85-8.22,51.29-38.18,54.35-74.16a173,173,0,0,1,16.12-58.64C490.74,536.43,495.92,480.4,480.84,423.73Z" transform="translate(-69.65 -76.72)"/><path class="cls-4" d="M237.8,146.15c18.52,42.78,35.65,86.12,52.33,129.63,4.17,10.88,8.17,21.82,12.2,32.75l6.05,16.4,5.91,16.44c3.9,11,7.95,21.91,11.72,32.93l11.33,33.07c7.27,22.15,14.72,44.23,21.58,66.5,3.44,11.14,7.1,22.2,10.32,33.4l9.8,33.56c12.62,44.88,24.12,90.09,33.31,135.8l-2,.41-8.18-33.93-2-8.49-2.24-8.43-4.5-16.86L389,592.46c-1.48-5.62-3.17-11.19-4.74-16.79-3.23-11.18-6.36-22.38-9.66-33.53-13.48-44.55-27.54-88.91-42.53-133-7.66-22-15.13-44-22.94-65.94l-5.81-16.46-5.95-16.41c-4-10.94-7.93-21.89-12-32.79Q273.39,244.77,261,212.13c-8.17-21.8-16.56-43.52-25-65.21Z" transform="translate(-69.65 -76.72)"/><path class="cls-5" d="M312.48,559.45c-16.24-30.79-41-53.24-67.41-64.33a99,99,0,0,1-52.86-52.06c-1.06-2.48-2.23-4.95-3.52-7.39-19.54-37-58-55.1-85.92-40.37S68.06,452,87.59,489a98.1,98.1,0,0,0,14.11,20.21c17,18.72,26.72,43,26.29,68.33-.38,22.6,5.24,47,17.42,70C163.57,682,192.32,706,222.26,715.37a97.38,97.38,0,0,1,31.28,16.46c15.48,12.22,34.82,15.83,50.49,7.56,16.91-8.92,24.82-29.16,21.77-50.61a103.68,103.68,0,0,1,1.53-36.45C333.41,624,328.91,590.57,312.48,559.45Z" transform="translate(-69.65 -76.72)"/><path class="cls-4" d="M133.32,429.53c16.56,22.54,32.38,45.6,48,68.83,3.9,5.8,7.71,11.67,11.53,17.52l5.73,8.79,5.66,8.83c3.75,5.9,7.59,11.75,11.27,17.69L226.52,569c7.22,12,14.54,23.9,21.53,36,3.51,6.05,7.13,12,10.52,18.16l10.23,18.32c13.39,24.56,26.18,49.46,37.68,75l-1.09.5-9.33-18.75-2.32-4.69-2.44-4.64-4.9-9.26-4.87-9.26c-1.62-3.09-3.36-6.13-5-9.19-3.38-6.11-6.72-12.24-10.14-18.32q-20.78-36.39-42.69-72.09c-7.43-11.84-14.75-23.73-22.25-35.51l-5.61-8.85-5.68-8.8c-3.78-5.87-7.56-11.74-11.41-17.57q-11.37-17.61-23-35c-7.7-11.65-15.52-23.24-23.36-34.79Z" transform="translate(-69.65 -76.72)"/><path class="cls-6" d="M1026.48,439.58c-4.26-12-6.91-24.32-6.45-37.4,1.17-33,23.39-61.08,40.35-87.77,15.59-24.53,29.22-62.1-14.48-63.26-34.81-.92-79.05,29.18-87.48,64.57-10,41.88,5,97.62-23.58,133.59-40,50.32-63.43,35.34-73.08,126.39-4.13,38.91,15.15,62.66,38.58,77.09a103.88,103.88,0,0,0,118.47-6.57c30.24-23.64,50.59-60.06,49.13-99C1066.47,508,1039.24,475.44,1026.48,439.58Z" transform="translate(-69.65 -76.72)"/><path class="cls-7" d="M986.22,743.71H986a1.49,1.49,0,0,1-1.48-1.29c-12.39-88-16.87-167.71-13.3-236.89,2.85-55.4,10.84-104.22,23.74-145.11,22-69.87,50.41-92.1,51.6-93a1.5,1.5,0,0,1,1.82,2.39c-.07.05-7.28,5.65-17.09,19.72-9.06,13-22.25,36.07-33.6,72.22C984.92,402.41,977,451,974.2,506.07c-3.52,68.9,1,148.28,13.3,235.94A1.52,1.52,0,0,1,986.22,743.71Z" transform="translate(-69.65 -76.72)"/><path class="cls-8" d="M1071.05,347.23a14.47,14.47,0,0,0-5.41-.94c-10.93.09-16.58,11-20.69,19.58-3.53,7.34-7.71,16.26-7,24.69.78,9.11,9.5,17.41,17.34,9.07,8.92-9.48,22.34-24.07,23.86-37.72C1079.92,355.13,1076.67,349.42,1071.05,347.23Z" transform="translate(-69.65 -76.72)"/><path class="cls-9" d="M1132.75,605c7.5-28.63.46-63.16-1.55-94.5-1.07-16.57-.65-32.85,3.7-49s13.86-32.84,8.52-49.83c-10.76-34.22-46.17-22.92-68.15-.34-25.51,26.2-36.61,72.24-49,107.3-7.45,21.14-17.56,42.55-22.62,64.35-8.38,36.12-2.8,62.41,12.89,81.42a53.26,53.26,0,0,0,62,15.1C1098.25,671.17,1120.65,651.19,1132.75,605Z" transform="translate(-69.65 -76.72)"/><path class="cls-10" d="M1041.17,743.72a1.48,1.48,0,0,1-1.49-1.41c0-.48-2.68-48.54,3.62-112.68,5.82-59.22,20.68-144.67,58.43-215.46a1.5,1.5,0,1,1,2.65,1.41c-37.51,70.34-52.29,155.36-58.09,214.29-6.28,63.92-3.65,111.79-3.62,112.27a1.5,1.5,0,0,1-1.41,1.58Z" transform="translate(-69.65 -76.72)"/><path class="cls-11" d="M1042.51,194.61c-.08-27.5-30.77-63.26-75.59-24.52-2.67-12.76-67.46-46.85-86.81,40.32-6.92-20-49.87-5.35-54.21,30-17.42-6.9-52.78,39.92.65,42.09,68.22,2.77,222-15.27,244.8-64.82S1042.51,194.61,1042.51,194.61Z" transform="translate(-69.65 -76.72)"/><path class="cls-11" d="M721.21,186.32c-.05-17.56-19.65-40.39-48.28-15.66-1.7-8.15-43.07-29.91-55.43,25.75-4.42-12.76-31.84-3.42-34.61,19.17-11.13-4.4-33.71,25.5.41,26.89,43.57,1.76,141.77-9.76,156.32-41.4S721.21,186.32,721.21,186.32Z" transform="translate(-69.65 -76.72)"/><polygon class="cls-12" points="438.87 493.4 423.19 634.01 605.08 634.01 581.39 493.4 438.87 493.4"/><path class="cls-13" d="M203,285V607a48.87,48.87,0,0,0,47.6,48.84c117.62,3,529,10.38,641,8.73a35.93,35.93,0,0,0,35.39-34.92c2.16-74.81,5.67-254.71-7.31-338.24a37,37,0,0,0-35.37-31.31C785.7,257,349.6,246.94,237.68,249.45A35.52,35.52,0,0,0,203,285Z" transform="translate(-69.65 -76.72)"/><path class="cls-14" d="M223.17,283.39v306a28.3,28.3,0,0,0,27.88,28.3l624.38,7.72a27.56,27.56,0,0,0,28-27.45l1.05-303.22a20.15,20.15,0,0,0-19.66-20.21L245.53,261.57A21.83,21.83,0,0,0,223.17,283.39Z" transform="translate(-69.65 -76.72)"/><path class="cls-15" d="M908.09,638h0L223.15,626.37a1,1,0,1,1,0-2L908.11,636a1,1,0,0,1,0,2Z" transform="translate(-69.65 -76.72)"/><path class="cls-16" d="M713.92,739.5H447.7c-7.23,0-12.66-5.15-11.26-10.68l3.41-13.51c1-4.06,5.5-7,10.81-7.21l256.64-8c5.55-.17,10.46,2.77,11.67,7l6.16,21.51C726.73,734.19,721.27,739.5,713.92,739.5Z" transform="translate(-69.65 -76.72)"/><path class="cls-17" d="M591,711.89a1,1,0,0,1,0-2l11-.16h0a1,1,0,0,1,1,1,1,1,0,0,1-1,1l-11,.16Z" transform="translate(-69.65 -76.72)"/><path class="cls-17" d="M446.29,732.19l-.16,0a1,1,0,0,1-.83-1.14l1.57-9.83a11.1,11.1,0,0,1,10.81-9.36l116.65-1.7h0a1,1,0,0,1,0,2l-116.65,1.7a9.09,9.09,0,0,0-8.86,7.68l-1.57,9.82A1,1,0,0,1,446.29,732.19Z" transform="translate(-69.65 -76.72)"/><path class="cls-18" d="M711.38,544.08,274.64,533.45a13.84,13.84,0,0,1-13.5-13.83V303.24A13.83,13.83,0,0,1,275,289.41H705.52a13.83,13.83,0,0,1,13.82,13.45l6.2,227A13.84,13.84,0,0,1,711.38,544.08Z" transform="translate(-69.65 -76.72)"/><circle class="cls-19" cx="421.19" cy="312.52" r="61.01"/><path class="cls-17" d="M537.08,420a1,1,0,0,1-.54-.15,1,1,0,0,1-.3-1.39,53.6,53.6,0,0,0,6.87-15.74,1,1,0,0,1,1.94.49,55.48,55.48,0,0,1-7.13,16.34A1,1,0,0,1,537.08,420Z" transform="translate(-69.65 -76.72)"/><path class="cls-17" d="M545.8,390.24a1,1,0,0,1-1-1,54,54,0,0,0-54-53.95,1,1,0,0,1,0-2,56,56,0,0,1,56,55.95A1,1,0,0,1,545.8,390.24Z" transform="translate(-69.65 -76.72)"/><path class="cls-17" d="M471.15,421.12A3.18,3.18,0,0,1,468,418l-1.45-54.13a5.11,5.11,0,0,1,7.28-4.76l53.46,25a5.11,5.11,0,0,1,.24,9.14l-47.19,25.16a3.17,3.17,0,1,1-3-5.6l45-24-49.41-23.11,1.4,52.13a3.19,3.19,0,0,1-3.09,3.26Z" transform="translate(-69.65 -76.72)"/><path class="cls-20" d="M261.14,486.64v33a13.84,13.84,0,0,0,13.5,13.83l436.74,10.63a13.84,13.84,0,0,0,14.16-14.2l-1.18-43.24Z" transform="translate(-69.65 -76.72)"/><path class="cls-21" d="M261.14,486.64h0Z" transform="translate(-69.65 -76.72)"/><path class="cls-22" d="M274.14,510.87l.4,4a7.15,7.15,0,0,0,7.1,6.43H667.36a7.14,7.14,0,0,0,7.13-7.14h0a7.15,7.15,0,0,0-7.06-7.14l-386.11-4A7.15,7.15,0,0,0,274.14,510.87Z" transform="translate(-69.65 -76.72)"/><path class="cls-23" d="M521,516.71c-.45-3.71-1-7.46-1.54-11.23L281.32,503a7.15,7.15,0,0,0-7.18,7.85l.4,4a7.15,7.15,0,0,0,7.1,6.43h240C521.4,519.68,521.16,518.14,521,516.71Z" transform="translate(-69.65 -76.72)"/><path class="cls-17" d="M535.8,513a12.91,12.91,0,1,1-12.9-12.9A12.9,12.9,0,0,1,535.8,513Z" transform="translate(-69.65 -76.72)"/><rect class="cls-22" x="613.71" y="426.87" width="7.71" height="17.51"/><rect class="cls-22" x="634.73" y="421.96" width="7.71" height="22.42"/><rect class="cls-22" x="624.92" y="417.76" width="7.01" height="26.62"/><path class="cls-22" d="M261,561l.35,37a9.6,9.6,0,0,0,9.69,9.5l440.36-4.27a9.59,9.59,0,0,0,9.5-9.68l-.25-25.11a9.59,9.59,0,0,0-9.42-9.5l-440.47-7.66A9.58,9.58,0,0,0,261,561Z" transform="translate(-69.65 -76.72)"/><rect class="cls-22" x="204.89" y="488.42" width="335.1" height="8.62" rx="2.5"/><rect class="cls-22" x="204.89" y="500.87" width="236.48" height="6.7" rx="2.5"/><rect class="cls-22" x="204.89" y="513.32" width="128.29" height="4.79" rx="2.31"/><path class="cls-22" d="M877.25,389.55l-119.94-3.94a5.13,5.13,0,0,1-5-5.13v-80.2a5.13,5.13,0,0,1,5.13-5.13H875.08a5.13,5.13,0,0,1,5.12,5l2.3,84.15A5.13,5.13,0,0,1,877.25,389.55Z" transform="translate(-69.65 -76.72)"/><circle class="cls-24" cx="747.01" cy="264.73" r="22.75"/><path class="cls-17" d="M833.9,353a.47.47,0,0,1-.4-.73,20,20,0,0,0,2.55-5.84.49.49,0,0,1,.58-.35.48.48,0,0,1,.35.58,20.9,20.9,0,0,1-2.67,6.12A.47.47,0,0,1,833.9,353Z" transform="translate(-69.65 -76.72)"/><path class="cls-17" d="M837.15,341.93a.48.48,0,0,1-.47-.48,20,20,0,0,0-20-20,.47.47,0,0,1-.48-.48.48.48,0,0,1,.48-.48,21,21,0,0,1,21,21A.48.48,0,0,1,837.15,341.93Z" transform="translate(-69.65 -76.72)"/><path class="cls-17" d="M809.33,353.33a1.18,1.18,0,0,1-1.18-1.15L807.61,332a1.9,1.9,0,0,1,2.71-1.77l19.93,9.32a1.91,1.91,0,0,1,.09,3.41l-17.59,9.37a1.18,1.18,0,1,1-1.12-2.08l16.78-8.95L810,332.69l.52,19.43a1.18,1.18,0,0,1-1.15,1.21Z" transform="translate(-69.65 -76.72)"/><path class="cls-22" d="M877.25,494.87l-119.94-3.94a5.14,5.14,0,0,1-5-5.13V405.59a5.13,5.13,0,0,1,5.13-5.12H875.08a5.13,5.13,0,0,1,5.12,5l2.3,84.15A5.13,5.13,0,0,1,877.25,494.87Z" transform="translate(-69.65 -76.72)"/><circle class="cls-25" cx="747.01" cy="370.04" r="22.75"/><path class="cls-17" d="M833.9,458.32a.47.47,0,0,1-.25-.07.49.49,0,0,1-.15-.67,19.76,19.76,0,0,0,2.55-5.84.48.48,0,0,1,.58-.34.47.47,0,0,1,.35.58,21.13,21.13,0,0,1-2.67,6.12A.49.49,0,0,1,833.9,458.32Z" transform="translate(-69.65 -76.72)"/><path class="cls-17" d="M837.15,447.24a.47.47,0,0,1-.47-.47,20,20,0,0,0-20-20,.48.48,0,0,1-.48-.48.47.47,0,0,1,.48-.48,21,21,0,0,1,21,21A.47.47,0,0,1,837.15,447.24Z" transform="translate(-69.65 -76.72)"/><path class="cls-17" d="M809.33,458.65a1.18,1.18,0,0,1-1.18-1.15l-.54-20.18a1.86,1.86,0,0,1,.86-1.64,1.88,1.88,0,0,1,1.85-.14l19.93,9.33a1.9,1.9,0,0,1,.09,3.4l-17.59,9.38a1.19,1.19,0,1,1-1.12-2.09l16.78-8.94L810,438l.52,19.43a1.18,1.18,0,0,1-1.15,1.22Z" transform="translate(-69.65 -76.72)"/><rect class="cls-22" x="682.65" y="435.76" width="130.21" height="8.62" rx="4.16"/><rect class="cls-22" x="682.65" y="450.13" width="130.21" height="8.62" rx="4.16"/><rect class="cls-22" x="682.65" y="464.49" width="130.21" height="8.62" rx="4.16"/><rect class="cls-22" x="682.65" y="478.85" width="93.83" height="8.62" rx="4.16"/><rect class="cls-22" x="682.65" y="501.83" width="130.21" height="8.62" rx="4.16"/><rect class="cls-22" x="682.65" y="516.19" width="93.83" height="8.62" rx="4.16"/><circle class="cls-26" cx="812.77" cy="490.77" r="175.23"/><path class="cls-17" d="M1041.49,610.52a1.17,1.17,0,0,1-.26,0,1,1,0,0,1-.71-1.22,164.1,164.1,0,0,0,5.38-41.76,1,1,0,0,1,2,0,165.8,165.8,0,0,1-5.45,42.27A1,1,0,0,1,1041.49,610.52Z" transform="translate(-69.65 -76.72)"/><path class="cls-17" d="M1045.42,545.28h-.14a1,1,0,0,1-1-.86A163.64,163.64,0,0,0,833.82,411.37a1,1,0,1,1-.6-1.91,165.57,165.57,0,0,1,213,134.69A1,1,0,0,1,1045.42,545.28Z" transform="translate(-69.65 -76.72)"/><circle class="cls-22" cx="812.77" cy="401.98" r="48.16"/><circle class="cls-22" cx="882.43" cy="478.71" r="35.87" transform="translate(108.38 1117.29) rotate(-73.92)"/><circle class="cls-22" cx="812.77" cy="580.95" r="48.16"/><circle class="cls-22" cx="723.29" cy="491.47" r="48.16"/><circle class="cls-22" cx="812.77" cy="580.95" r="35.87"/><circle class="cls-22" cx="792.94" cy="568.19" r="35.87" transform="translate(-239.18 650.39) rotate(-45)"/><circle class="cls-22" cx="971.91" cy="568.19" r="48.16" transform="translate(177.07 1352.6) rotate(-80.21)"/><circle class="cls-22" cx="971.91" cy="568.19" r="35.87" transform="translate(264.55 1419.25) rotate(-85.81)"/><circle class="cls-22" cx="816.79" cy="494.87" r="16.4"/><path class="cls-27" d="M426,319.14c-.11,0-58.44-102.2-66.33-111.82a6.11,6.11,0,0,0-5.45-2.19L338,207.07l-19.13,41.38,31.86-18.56c-3.15,21.81,37.79,54.22,51.83,66.05a3.22,3.22,0,0,1,.25,4.69l-5.6,5.87A64.34,64.34,0,0,0,429,324.59Z" transform="translate(-69.65 -76.72)"/><path class="cls-28" d="M400.42,303.33s-3.58,1.16-4.79,4.35a3.65,3.65,0,0,0,1.37,4.2c5.89,4.22,25.32,17.84,34.29,20.51a1,1,0,0,0,1.27-1.19c-.46-2.09-1.95-6.25-6.74-12.34l.43.87a1.25,1.25,0,0,1-1.73,1.65C418.53,318,406.31,310.58,400.42,303.33Z" transform="translate(-69.65 -76.72)"/><path class="cls-29" d="M403.31,344.21c-.1-.06-8.85-21.15-8.95-21.21-8-48.86-27.6-90.7-33.38-101.71a6.1,6.1,0,0,0-4.9-3.26l-16.33-1.39-27.11,36.65,35-11.72c-7.5,20.72,26,60.74,37.39,75.16a3.24,3.24,0,0,1-.7,4.66L377.61,326a64.45,64.45,0,0,0,27.49,24.15Z" transform="translate(-69.65 -76.72)"/><path class="cls-30" d="M381.43,323.55s-3.74.41-5.57,3.29a3.65,3.65,0,0,0,.49,4.39c4.92,5.32,21.19,22.6,29.43,27a1,1,0,0,0,1.48-.91c0-2.13-.64-6.51-4.11-13.44l.25.94a1.24,1.24,0,0,1-2,1.26C396.19,341.57,385.73,331.84,381.43,323.55Z" transform="translate(-69.65 -76.72)"/><path class="cls-31" d="M263.27,208.92s-14.78,22-16,32,4.08,13.5,19.55,14.78c46,3.8,68.73-10,68.73-10,3.15-20.07,5.39-25.18,31.69-36.1,0,0-33.26,2.64-40,0S263.27,208.92,263.27,208.92Z" transform="translate(-69.65 -76.72)"/><path class="cls-32" d="M322.21,85.76S311.91,73.58,301,88.52c-2,2.71-9.6.47-12.39,6.14a7.19,7.19,0,0,1-7.76,4c-8-1.47-21-1.59-27.48,10.92-4.92,9.55-1.12,15.14,3.79,18.33a8,8,0,0,1,2.72,10.8c-2.09,3.56-2.49,8.38,2.92,14.17,12.12,13,36.12-8.24,36.12-8.24l19.05-45Z" transform="translate(-69.65 -76.72)"/><path class="cls-33" d="M303.24,206s17.21-16.39,25.68-27.24a23,23,0,0,0,3.9-20.73c-3.86-13-10.74-26.53-11.37-28.63-1-3.22-20.25-3.09-20.25-3.09s-38,24.65-52.9,66.4l16.76,5.22s9.91-16.64,19.71-27.22c0,0-16.95,22.4-17.55,31.57Z" transform="translate(-69.65 -76.72)"/><path class="cls-34" d="M336,212.48,323.1,198.41l-14.94,4s-17.41,2.7-27.37,0l-10-2.7-22.52-7-3.54,10a6,6,0,0,0,2.2,6.91,38.48,38.48,0,0,0,5.69,3.54c3,1.3,68.32.41,68.32.41Z" transform="translate(-69.65 -76.72)"/><path class="cls-35" d="M314.46,103.12l-13,24.12c.85,5.26,14.11,5.41,16.16,2.27a3.09,3.09,0,0,0,.41-1.07l7.76-16.11c.33-1.57-4-6.87-5.39-7.62L315.27,102C313.29,100.91,321.57,100.82,314.46,103.12Z" transform="translate(-69.65 -76.72)"/><path class="cls-36" d="M340.71,97.46s1.46,8.15-4.94,18.51-12.78,9.89-16,6.2-7.13-9.85-5.36-20.19S338.5,87.07,340.71,97.46Z" transform="translate(-69.65 -76.72)"/><path class="cls-37" d="M322.14,103.11s10.37-13.63,18.34-1.75l-.14,4.1s10.36-.48,9.23-10S340,79.37,328.28,82.63s-18.57,7-19.89,15.11,5.32,6.81,5.32,6.81,2.54-5.61,5.6-6,2,4.06,2,4.06Z" transform="translate(-69.65 -76.72)"/><path class="cls-38" d="M319.76,102.74s5.38-7,.49-8.41-4.71,6.83-4.39,9.91Z" transform="translate(-69.65 -76.72)"/><path class="cls-39" d="M293.22,218.05h.14l59.49-.07a2.66,2.66,0,1,0,0-5.32l-59.48.06a2.67,2.67,0,0,0-.14,5.33Z" transform="translate(-69.65 -76.72)"/><path class="cls-40" d="M406.32,164H356.78a9.45,9.45,0,0,0-8.54,5.41L325.34,218H386.9a5.73,5.73,0,0,0,5.34-3.62L410,169.45A4,4,0,0,0,406.32,164Z" transform="translate(-69.65 -76.72)"/><path class="cls-41" d="M371.42,188.94c-1.07,3.33-.28,6.57,1.77,7.23s4.59-1.51,5.66-4.84.28-6.58-1.77-7.24S372.49,185.6,371.42,188.94Z" transform="translate(-69.65 -76.72)"/><path class="cls-42" d="M626.14,709.2c6.82,3.37,13.63,6.11,18.23,7.85-2.82-4.7-9.47-15.17-16.25-21.15l-5.28-2.69s-3.05,2-6.5,8.08C616.74,702.81,618.68,705.52,626.14,709.2Z" transform="translate(-69.65 -76.72)"/><path class="cls-43" d="M644.41,717.12l0-.07c-4.6-1.74-11.41-4.48-18.23-7.85-7.46-3.68-9.4-6.39-9.8-7.91-.16.29-.32.56-.48.86a2.76,2.76,0,0,0,1.13,3.76c5.5,2.93,19.2,10.09,26.17,12.71A1,1,0,0,0,644.41,717.12Z" transform="translate(-69.65 -76.72)"/><path class="cls-44" d="M625,685.48c.76.31-2,3.75-2.55,8.09a2.16,2.16,0,0,0,1.13,2.35c.58.26,1.28.55,2,.81a2.38,2.38,0,0,0,2.87-1.09l5.29-9.55Z" transform="translate(-69.65 -76.72)"/><path class="cls-45" d="M541.91,741.26c7.49.13,14.72-.3,19.55-.69-4.49-3-14.83-9.52-23.39-12l-4-.12a2.66,2.66,0,0,0-2.59,1.74,30.1,30.1,0,0,0-1.59,8.15C530.85,739.53,533.72,741.12,541.91,741.26Z" transform="translate(-69.65 -76.72)"/><path class="cls-46" d="M561.52,740.61l-.06,0c-4.83.39-12.06.82-19.55.69-8.19-.14-11.06-1.73-12.06-2.91,0,.32-.05.63-.07,1a2.74,2.74,0,0,0,2.6,2.87c6.13.28,21.35.89,28.66.29A1,1,0,0,0,561.52,740.61Z" transform="translate(-69.65 -76.72)"/><path class="cls-47" d="M535.54,719.91c.81.07-1.93,4.73-2.44,9a1.89,1.89,0,0,0,1.76,1.92c.63.08,1.39.15,2.16.18a2.38,2.38,0,0,0,2.43-1.87l5.17-9.37Z" transform="translate(-69.65 -76.72)"/><path class="cls-48" d="M533.27,722.77c4.5-12.31,36-97.37,52.89-115L606,613l2.75-2.69s47.81,20,52.85,26.07c4.13,5-28.5,56-28.5,56a11.2,11.2,0,0,1-10.44-3.57L635.3,652a2.87,2.87,0,0,0-1.8-3.65l-36.61-12.21a3.21,3.21,0,0,0-3.77,1.37c-9.82,16-43.64,71.49-50.39,89.05a1.11,1.11,0,0,1-1.22.71,27.73,27.73,0,0,1-7.27-2.14A1.94,1.94,0,0,1,533.27,722.77Z" transform="translate(-69.65 -76.72)"/><path class="cls-49" d="M595.63,634.72a.52.52,0,0,1-.32-.18.48.48,0,0,1,.07-.68l5.45-4.45a.49.49,0,0,1,.68.06.48.48,0,0,1-.07.68L596,634.61A.52.52,0,0,1,595.63,634.72Z" transform="translate(-69.65 -76.72)"/><path class="cls-50" d="M647.46,536.77c-5-5.78-9.79-8.12-18.61-9.3a14.44,14.44,0,0,0-15.22,8.87L584,608.27c6.83,6.07,17.09,8.17,29.93,7.3l37.72-47a30.73,30.73,0,0,0,4.49-13.29C656.87,547.46,653.27,543.55,647.46,536.77Z" transform="translate(-69.65 -76.72)"/><path class="cls-51" d="M633.3,510.15s-4.78,13.38-7.71,19.33a1.59,1.59,0,0,0,1,2c3,1.11,10.14,3.58,13.81,3.3a1.67,1.67,0,0,0,1.51-1.31L646.06,515Z" transform="translate(-69.65 -76.72)"/><path class="cls-52" d="M649.85,496.76s3.26,10.59,3,15.92.46,8.9-5.79,9.28-11.07-3.25-13.27-8.84c0,0-3.47-8.63-2.12-11.85S649.85,496.76,649.85,496.76Z" transform="translate(-69.65 -76.72)"/><path class="cls-53" d="M636.27,509.56l.77.08s-2.46-6.9.48-7.74,14.3-1.85,17.14-5.53,1.22-8.68-1.71-10.4a.43.43,0,0,0-.55.13l-.31.46a.41.41,0,0,1-.75-.17h0a.42.42,0,0,0-.74-.19c-.86,1.09-3.07,2.79-8.51,3.17-7.71.55-13.06,3.05-13.76,8.27a.43.43,0,0,1-.69.27c-.52-.41-1.39-.67-2.7.2-2.27,1.52-1.93,6.14,2.21,10.38a.42.42,0,0,1-.1.66c-.88.45-2.26,1.59.74,3.65s5,2.13,5.77,2a.42.42,0,0,0,.36-.4l.23-4.66a.43.43,0,0,1,.47-.4Z" transform="translate(-69.65 -76.72)"/><path class="cls-54" d="M636.35,510.55s-1-6.64-4.05-5.16.69,7.4,3,7.9Z" transform="translate(-69.65 -76.72)"/><path class="cls-55" d="M714.89,507.24c-.94-.24-9.32,20.81-9.32,20.81l1.93,5.81s6,.08,6.35-4.85C714.24,523.75,718.76,508.21,714.89,507.24Z" transform="translate(-69.65 -76.72)"/><path class="cls-56" d="M705.59,528.05c-16.17,14.15-43.14,14.66-60.32,13a59.16,59.16,0,0,0-1.65,16.56c43.76,2.86,63.88-23.7,63.88-23.7C707.5,528.92,705.59,528.05,705.59,528.05Z" transform="translate(-69.65 -76.72)"/><path class="cls-57" d="M645.27,541a96.88,96.88,0,0,1-13.74-2.18c-21.84-5.92-21.84,14.41-10.22,19.25,4.4,1.84,18.4,1,22.31-.51A59.16,59.16,0,0,1,645.27,541Z" transform="translate(-69.65 -76.72)"/><polygon class="cls-58" points="775.59 97.02 766.4 117.39 756.55 102.41 775.59 97.02"/><path class="cls-59" d="M758.89,120.71l33.25,73.09a5.68,5.68,0,0,0,7.69,2.72L872,160.37a2.27,2.27,0,0,0-.34-4.19Z" transform="translate(-69.65 -76.72)"/><polygon class="cls-60" points="775.58 97.02 689.24 43.98 763.96 102.89 761.65 108.65 775.58 97.02"/><polygon class="cls-61" points="757.04 106.32 766.4 117.39 763.96 102.89 757.04 106.32"/><path class="cls-62" d="M711.53,473l-2.43-.67a.53.53,0,0,1-.37-.65.52.52,0,0,1,.65-.37h0l2.37.71h0a.5.5,0,0,1,.34.62A.51.51,0,0,1,711.53,473Z" transform="translate(-69.65 -76.72)"/><path class="cls-62" d="M704.32,470.62l-4.59-2.17a.65.65,0,0,1,.55-1.17h0l.06,0,4.43,2.22.05,0a.6.6,0,0,1,.27.79A.61.61,0,0,1,704.32,470.62Z" transform="translate(-69.65 -76.72)"/><path class="cls-62" d="M695.36,465.85l-4.11-3a.75.75,0,0,1-.16-1,.74.74,0,0,1,1-.16h0l.06,0,3.95,3,.05,0a.7.7,0,0,1-.83,1.12Z" transform="translate(-69.65 -76.72)"/><path class="cls-62" d="M687.41,459.54l-3.55-3.64a.83.83,0,0,1,1.19-1.16h0l.05.05,3.4,3.6,0,.05a.79.79,0,0,1-1.14,1.09Z" transform="translate(-69.65 -76.72)"/><path class="cls-62" d="M680.6,452l-3-4.14a.92.92,0,0,1,1.49-1.07h0l0,.06,2.8,4.08,0,.06a.87.87,0,0,1-1.43,1Z" transform="translate(-69.65 -76.72)"/><path class="cls-62" d="M675,443.51,672.67,439a1,1,0,0,1,1.79-.92h0l0,.07,2.2,4.44,0,.06a1,1,0,0,1-1.72.86Z" transform="translate(-69.65 -76.72)"/><path class="cls-62" d="M670.66,434.31,669,429.5a1.09,1.09,0,0,1,2.06-.72h0l0,.08,1.55,4.7,0,.07a1,1,0,0,1-2,.67Z" transform="translate(-69.65 -76.72)"/><path class="cls-62" d="M667.65,424.58l-1-5a1.14,1.14,0,0,1,.9-1.35,1.15,1.15,0,0,1,1.35.91h0v.08l.9,4.85,0,.08a1.12,1.12,0,0,1-2.2.42Z" transform="translate(-69.65 -76.72)"/><path class="cls-62" d="M666.05,414.51l-.25-5.1a1.2,1.2,0,1,1,2.39-.12h0v.09l.18,4.93v.09a1.17,1.17,0,0,1-2.34.1Z" transform="translate(-69.65 -76.72)"/><path class="cls-62" d="M665.93,404.31l.46-5.08a1.25,1.25,0,1,1,2.49.23h0v.08l-.5,4.92v.07a1.23,1.23,0,0,1-2.44-.23Z" transform="translate(-69.65 -76.72)"/><path class="cls-62" d="M667.17,394.2l1.08-5a1.3,1.3,0,0,1,2.55.55h0l0,.08-1.1,4.82,0,.07a1.28,1.28,0,0,1-2.49-.55Z" transform="translate(-69.65 -76.72)"/><path class="cls-62" d="M669.62,384.31l1.64-4.82a1.36,1.36,0,0,1,2.58.88h0l0,.07-1.65,4.66,0,.07a1.33,1.33,0,0,1-2.52-.87Z" transform="translate(-69.65 -76.72)"/><path class="cls-62" d="M673.16,374.77l2.14-4.62a1.42,1.42,0,0,1,2.57,1.19h0l0,.06-2.13,4.47,0,.06a1.38,1.38,0,0,1-2.51-1.17Z" transform="translate(-69.65 -76.72)"/><path class="cls-62" d="M677.67,365.64l2.57-4.38a1.47,1.47,0,1,1,2.53,1.48h0l0,.06-2.56,4.24,0,.06a1.44,1.44,0,0,1-2.47-1.47Z" transform="translate(-69.65 -76.72)"/><path class="cls-62" d="M683,357l3-4.14a1.51,1.51,0,0,1,2.46,1.76v0l0,.05-2.92,4,0,.06A1.49,1.49,0,0,1,683,357Z" transform="translate(-69.65 -76.72)"/><path class="cls-62" d="M689.1,348.85l3.3-3.86a1.53,1.53,0,0,1,2.33,2h0l0,0-3.23,3.76,0,0a1.53,1.53,0,0,1-2.32-2Z" transform="translate(-69.65 -76.72)"/><path class="cls-62" d="M695.85,341.26l3.59-3.59a1.55,1.55,0,1,1,2.19,2.19h0l0,.05-3.52,3.49,0,0a1.54,1.54,0,0,1-2.18-2.18Z" transform="translate(-69.65 -76.72)"/><path class="cls-62" d="M703.17,334.22c1.27-1.13,2.56-2.22,3.86-3.31a1.57,1.57,0,1,1,2,2.4h0l0,0c-1.27,1.06-2.54,2.12-3.78,3.22a1.56,1.56,0,0,1-2.07-2.33Z" transform="translate(-69.65 -76.72)"/><path class="cls-62" d="M711,327.75l4.08-3a1.58,1.58,0,1,1,1.88,2.55h0l-.05,0-4,2.93,0,0a1.57,1.57,0,0,1-1.86-2.54Z" transform="translate(-69.65 -76.72)"/><path class="cls-62" d="M719.28,321.87l4.28-2.71a1.6,1.6,0,1,1,1.72,2.71h0l0,0-4.2,2.64,0,0a1.6,1.6,0,0,1-2.2-.51A1.58,1.58,0,0,1,719.28,321.87Z" transform="translate(-69.65 -76.72)"/><path class="cls-62" d="M727.94,316.6l4.46-2.41a1.62,1.62,0,1,1,1.54,2.85h0l-.05,0-4.38,2.34,0,0a1.61,1.61,0,1,1-1.53-2.84Z" transform="translate(-69.65 -76.72)"/><path class="cls-62" d="M737,311.94l4.61-2.1a1.64,1.64,0,0,1,1.36,3h0l0,0-4.52,2-.05,0a1.63,1.63,0,1,1-1.34-3Z" transform="translate(-69.65 -76.72)"/><path class="cls-62" d="M746.25,307.9l4.75-1.78a1.65,1.65,0,1,1,1.16,3.1h0l0,0L747.45,311l-.05,0a1.65,1.65,0,0,1-1.15-3.09Z" transform="translate(-69.65 -76.72)"/><path class="cls-62" d="M755.81,304.49l4.86-1.47a1.68,1.68,0,0,1,1,3.21h0l-4.76,1.42-.06,0a1.66,1.66,0,0,1-1-3.19Z" transform="translate(-69.65 -76.72)"/><path class="cls-62" d="M765.57,301.72l4.95-1.15a1.69,1.69,0,1,1,.76,3.29h0l0,0-4.85,1.1h0a1.68,1.68,0,1,1-.76-3.27Z" transform="translate(-69.65 -76.72)"/><path class="cls-62" d="M775.5,299.58l5-.81a1.7,1.7,0,1,1,.54,3.36h0l-4.9.8H776a1.7,1.7,0,1,1-.54-3.36Z" transform="translate(-69.65 -76.72)"/><path class="cls-62" d="M785.54,298.13l5.05-.48a1.69,1.69,0,1,1,.32,3.36h0l-4.94.47h0a1.69,1.69,0,0,1-.33-3.37Z" transform="translate(-69.65 -76.72)"/><path class="cls-62" d="M795.66,297.34l5.08-.15a1.68,1.68,0,1,1,.1,3.35h-.06l-5,.15h-.06a1.68,1.68,0,0,1-.1-3.36Z" transform="translate(-69.65 -76.72)"/><path class="cls-62" d="M805.82,297.21l5.07.19a1.67,1.67,0,0,1-.12,3.34h-.06l-5-.17h0a1.68,1.68,0,1,1,.11-3.35Z" transform="translate(-69.65 -76.72)"/><path class="cls-62" d="M816,297.77l5,.53a1.65,1.65,0,0,1-.35,3.29h0l-4.94-.51h0a1.66,1.66,0,0,1,.34-3.31Z" transform="translate(-69.65 -76.72)"/><path class="cls-62" d="M826,299l5,.88a1.65,1.65,0,1,1-.57,3.25h-.05l-4.89-.85h0A1.65,1.65,0,0,1,826,299Z" transform="translate(-69.65 -76.72)"/><path class="cls-62" d="M836,300.94l4.93,1.22a1.64,1.64,0,0,1-.79,3.18h-.06l-4.81-1.19-.06,0a1.64,1.64,0,0,1,.79-3.19Z" transform="translate(-69.65 -76.72)"/><path class="cls-62" d="M845.78,303.57l4.83,1.58a1.63,1.63,0,0,1-1,3.09l-.06,0-4.71-1.53-.06,0a1.63,1.63,0,0,1,1-3.1Z" transform="translate(-69.65 -76.72)"/><path class="cls-62" d="M855.37,306.9l4.7,1.9a1.62,1.62,0,0,1-1.21,3l0,0-4.62-1.85,0,0a1.62,1.62,0,1,1,1.21-3Z" transform="translate(-69.65 -76.72)"/><path class="cls-62" d="M864.71,310.79l4.59,2a1.6,1.6,0,1,1-1.3,2.93h0l-4.58-2h0a1.61,1.61,0,0,1,1.3-2.94Z" transform="translate(-69.65 -76.72)"/><path class="cls-62" d="M873.88,314.92l4.56,2.07h0a1.6,1.6,0,0,1-1.31,2.91l-4.58-2.07a1.6,1.6,0,1,1,1.31-2.91h0Z" transform="translate(-69.65 -76.72)"/><path class="cls-62" d="M883,319l4.59,1.95,0,0a1.59,1.59,0,0,1-1.24,2.92l-4.65-2A1.59,1.59,0,1,1,883,319h0Z" transform="translate(-69.65 -76.72)"/><path class="cls-62" d="M892.23,322.8l4.67,1.69.05,0a1.57,1.57,0,0,1-1.06,3l-4.78-1.71a1.58,1.58,0,0,1,1.07-3h0Z" transform="translate(-69.65 -76.72)"/><path class="cls-62" d="M901.62,326l4.77,1.25.09,0a1.57,1.57,0,0,1-.79,3L900.75,329a1.56,1.56,0,1,1,.78-3h0Z" transform="translate(-69.65 -76.72)"/><path class="cls-62" d="M911.21,328.19l4.87.63h.11a1.55,1.55,0,1,1-.39,3.08l-5.09-.64a1.56,1.56,0,1,1,.39-3.09h.11Z" transform="translate(-69.65 -76.72)"/><path class="cls-62" d="M921,329.06l4.88-.17H926a1.55,1.55,0,1,1,.11,3.09l-5.15.19a1.55,1.55,0,0,1-.11-3.09H921Z" transform="translate(-69.65 -76.72)"/><path class="cls-62" d="M930.67,328.27l4.74-1.1.15,0a1.53,1.53,0,0,1,.7,3l-5,1.19a1.54,1.54,0,0,1-.7-3h0Z" transform="translate(-69.65 -76.72)"/><path class="cls-62" d="M940,325.6l4.45-2,.13-.06a1.52,1.52,0,0,1,1.25,2.77l-4.7,2.13a1.53,1.53,0,0,1-1.26-2.78h0Z" transform="translate(-69.65 -76.72)"/><path class="cls-62" d="M948.72,321.19l4-2.77.1-.07a1.51,1.51,0,1,1,1.71,2.48l-4.23,2.93a1.52,1.52,0,1,1-1.73-2.49h0Z" transform="translate(-69.65 -76.72)"/><path class="cls-62" d="M956.53,315.32l3.52-3.4.09-.09A1.48,1.48,0,0,1,962.2,314l-3.68,3.59a1.49,1.49,0,0,1-2.08-2.13h0Z" transform="translate(-69.65 -76.72)"/><path class="cls-62" d="M963.29,308.24l2.93-3.93.07-.1a1.44,1.44,0,0,1,2.32,1.72l-3.05,4.14a1.46,1.46,0,0,1-2.35-1.73h0Z" transform="translate(-69.65 -76.72)"/><path class="cls-62" d="M968.83,300.15l2.26-4.35.06-.1a1.41,1.41,0,0,1,2.5,1.3l-2.34,4.57a1.43,1.43,0,1,1-2.54-1.31h0Z" transform="translate(-69.65 -76.72)"/><path class="cls-62" d="M973,291.28l1.51-4.66,0-.12a1.38,1.38,0,0,1,2.63.85l-1.55,4.9a1.4,1.4,0,0,1-2.67-.85h0Z" transform="translate(-69.65 -76.72)"/><path class="cls-62" d="M975.6,281.85l.34-2.43c.11-.81.26-1.61.32-2.42a1.35,1.35,0,0,1,2.7.19v0c-.06.86-.22,1.7-.32,2.55l-.35,2.55a1.37,1.37,0,1,1-2.71-.37h0Z" transform="translate(-69.65 -76.72)"/><path class="cls-62" d="M976.5,272.1l-.17-4.91v-.11A1.32,1.32,0,0,1,979,267l.21,5.12a1.33,1.33,0,0,1-2.66.1h0Z" transform="translate(-69.65 -76.72)"/><path class="cls-62" d="M975.77,262.31l-.95-4.82,0-.1a1.29,1.29,0,0,1,2.52-.51l1,5a1.3,1.3,0,1,1-2.55.52h0Z" transform="translate(-69.65 -76.72)"/><path class="cls-62" d="M973.49,252.75l-1.69-4.63,0-.09a1.25,1.25,0,0,1,.75-1.61,1.26,1.26,0,0,1,1.6.74l1.79,4.8a1.28,1.28,0,0,1-.75,1.64,1.27,1.27,0,0,1-1.63-.75h0Z" transform="translate(-69.65 -76.72)"/><path class="cls-62" d="M969.76,243.64l-2.38-4.31,0-.08a1.22,1.22,0,1,1,2.14-1.19l2.5,4.46a1.24,1.24,0,1,1-2.16,1.21h0Z" transform="translate(-69.65 -76.72)"/><path class="cls-62" d="M964.67,235.22l-3-3.88-.06-.07a1.19,1.19,0,1,1,1.87-1.48l3.18,4a1.22,1.22,0,0,1-.2,1.7,1.2,1.2,0,0,1-1.7-.2h0Z" transform="translate(-69.65 -76.72)"/><path class="cls-62" d="M958.3,227.73l-1.8-1.68c-.6-.55-1.19-1.13-1.82-1.65a1.16,1.16,0,0,1,1.47-1.8l0,0c.66.53,1.28,1.13,1.91,1.7l1.88,1.73a1.18,1.18,0,0,1,.07,1.67,1.17,1.17,0,0,1-1.66.07h0Z" transform="translate(-69.65 -76.72)"/><path class="cls-62" d="M950.78,221.39l-4.13-2.68-.07-.05a1.12,1.12,0,0,1-.34-1.56,1.14,1.14,0,0,1,1.56-.34l4.3,2.75a1.15,1.15,0,0,1,.35,1.59,1.14,1.14,0,0,1-1.58.34h0Z" transform="translate(-69.65 -76.72)"/><path class="cls-62" d="M942.32,216.38l-4.52-2-.08,0a1.1,1.1,0,0,1,.88-2l4.69,2a1.12,1.12,0,0,1-.89,2h0Z" transform="translate(-69.65 -76.72)"/><path class="cls-62" d="M933.15,212.75l-4.78-1.28-.07,0a1,1,0,0,1,.52-2l4.95,1.27a1.07,1.07,0,0,1-.53,2.07h0Z" transform="translate(-69.65 -76.72)"/><path class="cls-62" d="M923.52,210.56,918.6,210h-.08a1,1,0,0,1,.2-2l5.08.49a1,1,0,0,1-.19,2h-.09Z" transform="translate(-69.65 -76.72)"/><path class="cls-62" d="M913.66,209.89l-4.93.25h-.08a.93.93,0,0,1-.11-1.86l5.09-.32a1,1,0,1,1,.12,1.92h-.09Z" transform="translate(-69.65 -76.72)"/><path class="cls-62" d="M903.83,210.8l-2.42.51-1.21.26c-.4.07-.8.19-1.2.29h0a.88.88,0,0,1-.42-1.7c.41-.11.82-.23,1.23-.32l1.25-.28,2.48-.55a.9.9,0,0,1,.4,1.76h-.07Z" transform="translate(-69.65 -76.72)"/><path class="cls-62" d="M894.23,213.27l-4.74,1.6h0a.81.81,0,0,1-1-.51.82.82,0,0,1,.51-1l4.75-1.66a.85.85,0,1,1,.56,1.6h0Z" transform="translate(-69.65 -76.72)"/><path class="cls-62" d="M884.73,216.5,879.9,218a.75.75,0,0,1-.95-.5.76.76,0,0,1,.49-1h0l4.74-1.53h0a.79.79,0,1,1,.49,1.5Z" transform="translate(-69.65 -76.72)"/><path class="cls-62" d="M875,219.18a42.72,42.72,0,0,1-5.06.68.69.69,0,0,1-.75-.65.71.71,0,0,1,.65-.76,40.27,40.27,0,0,0,4.87-.72.74.74,0,0,1,.87.58.73.73,0,0,1-.57.87Z" transform="translate(-69.65 -76.72)"/><path class="cls-62" d="M864.76,219.83a22.84,22.84,0,0,1-5-1.17.65.65,0,0,1,.43-1.23,21.56,21.56,0,0,0,4.75,1,.68.68,0,0,1-.14,1.36Z" transform="translate(-69.65 -76.72)"/><path class="cls-62" d="M855.09,216.44a24.65,24.65,0,0,1-4.09-3.11.6.6,0,0,1,.82-.88,22.82,22.82,0,0,0,3.92,2.92.63.63,0,0,1,.21.86.62.62,0,0,1-.85.22Z" transform="translate(-69.65 -76.72)"/><path class="cls-62" d="M847.72,209.35a15.6,15.6,0,0,1-2-4.78.54.54,0,0,1,.4-.65.55.55,0,0,1,.65.4,14.14,14.14,0,0,0,1.92,4.42.57.57,0,0,1-1,.61Z" transform="translate(-69.65 -76.72)"/><path class="cls-62" d="M845.65,199.33a12.75,12.75,0,0,1,.78-2.48.52.52,0,0,1,.66-.26.51.51,0,0,1,.26.66,12.25,12.25,0,0,0-.7,2.28.51.51,0,0,1-.6.41.5.5,0,0,1-.4-.6Z" transform="translate(-69.65 -76.72)"/></svg>