<svg id="Layer_3" data-name="Layer 3" xmlns="http://www.w3.org/2000/svg" viewBox="0 0 431.73 112.92"><defs><style>.cls-1{fill:#62aadb;}.cls-2,.cls-4{fill:none;}.cls-2{stroke:#000;stroke-miterlimit:10;stroke-width:1.05px;}.cls-3{fill:#00246b;}</style></defs><g id="Layer_4" data-name="Layer 4"><path class="cls-1" d="M202.74,218.64a6.77,6.77,0,0,1-4,5.29L138,249.77a6.73,6.73,0,0,1-5.26-12.38l46.9-20-47-19.32a6.73,6.73,0,0,1,5.12-12.44l61,25.11A6.69,6.69,0,0,1,202.74,218.64Z" transform="translate(-35.39 -185.17)"/><path class="cls-1" d="M109.35,247.21a6.71,6.71,0,0,1-8.77,3.65l-61-25.1a7.31,7.31,0,0,1,.08-13.15l60.72-25.85a6.73,6.73,0,0,1,5.27,12.39L58.72,219.1l47,19.33A6.72,6.72,0,0,1,109.35,247.21Z" transform="translate(-35.39 -185.17)"/><line class="cls-2" x1="45.98" y1="63.83" x2="45.96" y2="63.83"/><path class="cls-3" d="M159,247.32l12.67-5.26v32.35s-.24,3.56-10.5,7.7l-38.62,15.5a8.51,8.51,0,0,1-5.8,0L71.79,280a8.59,8.59,0,0,1-3.22-3.8V243.42l11.21,4.68.39,22.12,39.08,15,40.05-15.79Z" transform="translate(-35.39 -185.17)"/><path class="cls-3" d="M258.07,225.14v5.56a1.9,1.9,0,0,1-1.9,1.9H242.86a.65.65,0,0,0-.64.65v37.83a2.37,2.37,0,0,1-2.37,2.37h-5.73a1.69,1.69,0,0,1-1.7-1.7v-38.5a.65.65,0,0,0-.65-.65H219.84a1.9,1.9,0,0,1-1.9-1.9v-5.56a1.25,1.25,0,0,1,1.25-1.24h37.64A1.24,1.24,0,0,1,258.07,225.14Z" transform="translate(-35.39 -185.17)"/><path class="cls-3" d="M281.68,259.05c1-.21,2.63-1.67,3.28-3.71,1-1.91-.65-6.59-1.53-8.63a15.69,15.69,0,0,0-6.88-6.63l-.12,0c-2-1.3-8.1-1.63-11.92-1a10.77,10.77,0,0,0-3.06,1c-9.79,4.85-16.87,19.74-5.5,30.07,8.76,7.95,19.93,4.2,25.23,1.67a3.18,3.18,0,0,0,1.34-4.51l-.83-1.37a3,3,0,0,0-3.61-1.22,26.66,26.66,0,0,1-9,1.7c-5.75.53-7.22-4.64-7.57-6.63a.62.62,0,0,1,.62-.74C265.69,259.05,280.77,259.25,281.68,259.05ZM263,250.48c5.17-5.93,9.53-2.06,11.25,0a.65.65,0,0,1-.5,1.07H263.52A.66.66,0,0,1,263,250.48Z" transform="translate(-35.39 -185.17)"/><path class="cls-4" d="M273.78,251.57H263.52a.66.66,0,0,1-.49-1.09c5.17-5.93,9.53-2.06,11.25,0A.65.65,0,0,1,273.78,251.57Z" transform="translate(-35.39 -185.17)"/><path class="cls-3" d="M316.52,268.16a3.19,3.19,0,0,1-1.82,4.27c-5,1.83-15.14,4.18-22.5-2.85-10.16-9.72-1.53-24.2-1.53-24.2s6.31-10.95,22.78-5.15a3.57,3.57,0,0,1,2,4.93h0a3.87,3.87,0,0,1-4.25,2.12c-4-.81-11.05-1.34-13,4.29-2.77,8,2.28,13,2.28,13s2.19,3.53,11.6.86a3.46,3.46,0,0,1,4.11,2Z" transform="translate(-35.39 -185.17)"/><path class="cls-3" d="M354.33,249.41v19.68a3.8,3.8,0,0,1-3.8,3.79h-2.85a3.58,3.58,0,0,1-3.58-3.58V246.85s0,.05,0,.05h-6.3s-5.37-.15-6.63,2.87h0v20.3a3.37,3.37,0,0,1-3.37,3.38h-3.58a3.37,3.37,0,0,1-3.38-3.37V225.32a3.14,3.14,0,0,1,3.14-3.13H328a3.13,3.13,0,0,1,3.14,3.14V240.2c0,.63-.39.49,0,0,1-1.24,3.74-1.67,5.49-1.67h6.82A10.88,10.88,0,0,1,354.33,249.41Z" transform="translate(-35.39 -185.17)"/><path class="cls-3" d="M388.15,271.41c-5.73,2.59-9.45,4.65-23.63.7a2.36,2.36,0,0,1-1.59-3l.92-2.68a2.33,2.33,0,0,1,3-1.44c4.05,1.54,12.71,3.91,17.68-1.45a1.24,1.24,0,0,0,.14-.18c3.24-5.86-10.1-12.92-14.88-15.22a10,10,0,0,1-3.43-2.64c-2.39-2.9-5.87-8.82-1.72-15.37a16,16,0,0,1,15.59-7.9s4.81.78,8,1.63a2.37,2.37,0,0,1,1.62,3.06l-.75,2.18a2.71,2.71,0,0,1-3.17,1.76c-3.69-.84-10.7-1.8-13.24,2.3-3.51,5.64,4.38,9.35,4.38,9.35s13.56,6.8,15.2,12.66C394,260,393.9,268.3,388.15,271.41Z" transform="translate(-35.39 -185.17)"/><path class="cls-3" d="M463.43,273.15c-4.07,1.76-8.92,2.42-18-1.7a1.75,1.75,0,0,1-.9-2.28l1.24-2.87a1.69,1.69,0,0,1,2.3-.86c2.75,1.37,8.49,3.61,12.08.62a1.37,1.37,0,0,0,.48-1.4c-.9-3.22-9-6.66-11.68-7.71a3.41,3.41,0,0,1-1.5-1.15c-1.5-2.06-4.84-7.57-1.38-12.26,4.37-6.2,11.78-4.82,11.78-4.82s3.27.24,5.58.66a2,2,0,0,1,1.59,2.26l-.61,3.48a1.69,1.69,0,0,1-2.24,1.3c-2.49-.9-6.8-2.08-8.75-.24a1,1,0,0,0-.16.2c-2.35,3.76,2.42,5.63,2.42,5.63s9.65,4.63,10.82,8.6C467.66,263.92,467.53,271,463.43,273.15Z" transform="translate(-35.39 -185.17)"/><path class="cls-3" d="M366.11,54.38h3.53A2.31,2.31,0,0,1,372,56.69V85.83a2.46,2.46,0,0,1-2.46,2.46H366a2.38,2.38,0,0,1-2.38-2.38v-29A2.53,2.53,0,0,1,366.11,54.38Z"/><circle class="cls-1" cx="367.28" cy="44.73" r="5.46"/><path class="cls-3" d="M431.73,239.17c-7.08-.31-10,.37-10,.37a19.57,19.57,0,0,0-5.59,2.26,1.9,1.9,0,0,0-.57,2.32l1.48,3.23a1.62,1.62,0,0,0,2.24.78c2.75-1.4,8.6-3.74,12-.53a.63.63,0,0,1,.21.48v3.5a.65.65,0,0,1-.65.65c-3.13,0-16.56.39-18,9.68-.95,9.78,6,11.54,6,11.54a13.36,13.36,0,0,0,13-2.55.66.66,0,0,1,1,.15l.77,1.31a2.22,2.22,0,0,0,1.91,1.09h2.29a1.65,1.65,0,0,0,1.65-1.64v-24S439.27,239.29,431.73,239.17Zm-.31,24.68c-.86.95-5,5.14-9.74,2.63a1,1,0,0,1-.26-.23c-2.95-3.91,3-7.23,4.88-7.62h.1c1-.05,3.4,0,4.55,0a.66.66,0,0,1,.64.65v4.16A.63.63,0,0,1,431.42,263.85Z" transform="translate(-35.39 -185.17)"/><path class="cls-4" d="M431.59,259.26v4.16a.63.63,0,0,1-.17.43c-.86.95-5,5.14-9.74,2.63a1,1,0,0,1-.26-.23c-2.95-3.91,3-7.23,4.88-7.62h.1c1-.05,3.4,0,4.55,0A.66.66,0,0,1,431.59,259.26Z" transform="translate(-35.39 -185.17)"/></g></svg>