<svg xmlns="http://www.w3.org/2000/svg" xmlns:xlink="http://www.w3.org/1999/xlink" viewBox="0 0 962.7 621.57"><defs><style>.cls-1{fill:none;}.cls-2{isolation:isolate;}.cls-3{opacity:0.3;}.cls-210,.cls-4{fill:#fff;}.cls-5{fill:#eed5d5;}.cls-6{fill:#eacdb0;}.cls-7{fill:#5d66d3;}.cls-8{fill:#292949;}.cls-9{fill:#d67086;}.cls-10{fill:#41352b;}.cls-11{fill:#145566;}.cls-12{fill:#1a3151;}.cls-13{fill:#f7f7f7;}.cls-14{fill:#c4c6c6;}.cls-15{opacity:0.14;}.cls-16{fill:#cdd1d1;}.cls-17{fill:#f2f2f2;}.cls-18{opacity:0.7;}.cls-19{fill:#9ea6ad;}.cls-20{fill:#b3c1c4;}.cls-21,.cls-24{opacity:0.15;}.cls-22{fill:#353a85;}.cls-23{fill:#fee4d6;}.cls-24{mix-blend-mode:multiply;}.cls-25{clip-path:url(#clip-path);}.cls-26{fill:#d0d0d0;}.cls-27{fill:#cfcfcf;}.cls-28{fill:#cdcdcd;}.cls-29{fill:#ccc;}.cls-30{fill:#cacaca;}.cls-31{fill:#c9c9c9;}.cls-32{fill:#c7c7c7;}.cls-33{fill:#c6c6c6;}.cls-34{fill:#c4c4c4;}.cls-35{fill:#c3c3c3;}.cls-36{fill:#c1c1c1;}.cls-37{fill:silver;}.cls-38{fill:#bebebe;}.cls-39{fill:#bdbdbd;}.cls-40{fill:#bbb;}.cls-41{fill:#bababa;}.cls-42{fill:#b9b9b9;}.cls-43{fill:#b7b7b7;}.cls-44{fill:#b6b6b6;}.cls-45{fill:#b4b4b4;}.cls-46{fill:#b3b3b3;}.cls-47{fill:#b1b1b1;}.cls-48{fill:#b0b0b0;}.cls-49{fill:#afafaf;}.cls-50{fill:#adadad;}.cls-51{fill:#acacac;}.cls-52{fill:#aaa;}.cls-53{fill:#a9a9a9;}.cls-54{fill:#a8a8a8;}.cls-55{fill:#a6a6a6;}.cls-56{fill:#a5a5a5;}.cls-57{fill:#a4a4a4;}.cls-58{fill:#a2a2a2;}.cls-59{fill:#a1a1a1;}.cls-60{fill:#9f9f9f;}.cls-61{fill:#9e9e9e;}.cls-62{fill:#9d9d9d;}.cls-63{fill:#9b9b9b;}.cls-64{fill:#9a9a9a;}.cls-65{fill:#999;}.cls-66{fill:#979797;}.cls-67{fill:#969696;}.cls-68{fill:#959595;}.cls-69{fill:#939393;}.cls-70{fill:#929292;}.cls-71{fill:#919191;}.cls-72{fill:#909090;}.cls-73{fill:#8e8e8e;}.cls-74{fill:#8d8d8d;}.cls-75{fill:#8c8c8c;}.cls-76{fill:#8a8a8a;}.cls-77{fill:#898989;}.cls-78{fill:#888;}.cls-79{fill:#868686;}.cls-80{fill:#858585;}.cls-81{fill:#848484;}.cls-82{fill:#838383;}.cls-83{fill:#818181;}.cls-84{fill:gray;}.cls-85{fill:#7f7f7f;}.cls-86{fill:#7e7e7e;}.cls-87{fill:#7c7c7c;}.cls-88{fill:#7b7b7b;}.cls-89{fill:#7a7a7a;}.cls-90{fill:#797979;}.cls-91{fill:#787878;}.cls-92{fill:#767676;}.cls-93{fill:#757575;}.cls-94{fill:#747474;}.cls-95{fill:#737373;}.cls-96{fill:#727272;}.cls-97{fill:#707070;}.cls-98{fill:#6f6f6f;}.cls-99{fill:#6e6e6e;}.cls-100{fill:#6d6d6d;}.cls-101{fill:#6c6c6c;}.cls-102{fill:#6a6a6a;}.cls-103{fill:#696969;}.cls-104{fill:#686868;}.cls-105{fill:#676767;}.cls-106{fill:#666;}.cls-107{fill:#656565;}.cls-108{fill:#646464;}.cls-109{fill:#626262;}.cls-110{fill:#616161;}.cls-111{fill:#606060;}.cls-112{fill:#5f5f5f;}.cls-113{fill:#5e5e5e;}.cls-114{fill:#5d5d5d;}.cls-115{fill:#5c5c5c;}.cls-116{fill:#5b5b5b;}.cls-117{fill:#5a5a5a;}.cls-118{fill:#585858;}.cls-119{fill:#575757;}.cls-120{fill:#565656;}.cls-121{fill:#555;}.cls-122{fill:#545454;}.cls-123{fill:#535353;}.cls-124{fill:#525252;}.cls-125{fill:#515151;}.cls-126{fill:#505050;}.cls-127{fill:#4f4f4f;}.cls-128{fill:#4e4e4e;}.cls-129{fill:#4d4d4d;}.cls-130{fill:#4c4c4c;}.cls-131{fill:#4b4b4b;}.cls-132{fill:#4a4a4a;}.cls-133{fill:#494949;}.cls-134{fill:#484848;}.cls-135{fill:#474747;}.cls-136{fill:#464646;}.cls-137{fill:#454545;}.cls-138{fill:#444;}.cls-139{fill:#434343;}.cls-140{fill:#424242;}.cls-141{fill:#414141;}.cls-142{fill:#404040;}.cls-143{fill:#3f3f3f;}.cls-144{fill:#3e3e3e;}.cls-145{fill:#3d3d3d;}.cls-146{fill:#3c3c3c;}.cls-147{fill:#3b3b3b;}.cls-148{fill:#3a3a3a;}.cls-149{fill:#393939;}.cls-150{fill:#383838;}.cls-151{fill:#373737;}.cls-152{fill:#363636;}.cls-153{fill:#353535;}.cls-154{fill:#343434;}.cls-155{fill:#323232;}.cls-156{fill:#313131;}.cls-157{fill:#303030;}.cls-158{fill:#2f2f2f;}.cls-159{fill:#2e2e2e;}.cls-160{fill:#2d2d2d;}.cls-161{fill:#2c2c2c;}.cls-162{fill:#2b2b2b;}.cls-163{fill:#2a2a2a;}.cls-164{fill:#292929;}.cls-165{fill:#282828;}.cls-166{fill:#272727;}.cls-167{fill:#262626;}.cls-168{fill:#252525;}.cls-169{fill:#242424;}.cls-170{fill:#232323;}.cls-171{fill:#222;}.cls-172{fill:#212121;}.cls-173{fill:#202020;}.cls-174{fill:#1f1f1f;}.cls-175{fill:#1e1e1e;}.cls-176{fill:#1d1d1d;}.cls-177{fill:#1c1c1c;}.cls-178{fill:#1b1b1b;}.cls-179{fill:#1a1a1a;}.cls-180{fill:#191919;}.cls-181{fill:#181818;}.cls-182{fill:#171717;}.cls-183{fill:#161616;}.cls-184{fill:#151515;}.cls-185{fill:#141414;}.cls-186{fill:#131313;}.cls-187{fill:#121212;}.cls-188{fill:#111;}.cls-189{fill:#101010;}.cls-190{fill:#0f0f0f;}.cls-191{fill:#0e0e0e;}.cls-192{fill:#0d0d0d;}.cls-193{fill:#0c0c0c;}.cls-194{fill:#0b0b0b;}.cls-195{fill:#0a0a0a;}.cls-196{fill:#090909;}.cls-197{fill:#080808;}.cls-198{fill:#070707;}.cls-199{fill:#060606;}.cls-200{fill:#050505;}.cls-201{fill:#040404;}.cls-202{fill:#030303;}.cls-203{fill:#020202;}.cls-204{fill:#010101;}.cls-205{fill:#474ebb;}.cls-206{fill:#e5d1bd;}.cls-207{opacity:0.05;}.cls-208{fill:#d6d5d4;}.cls-209{opacity:0.1;}.cls-210{opacity:0.4;}.cls-211{fill:#f6f7f7;}.cls-212{fill:#edeced;}.cls-213{fill:#bab9b9;}.cls-214{fill:#b5b3b0;}.cls-215{fill:#73726f;}.cls-216{fill:#8c8a89;}</style><clipPath id="clip-path" transform="translate(-80.3 -128.33)"><rect class="cls-1" x="235.11" y="323.56" width="397.42" height="125.71"/></clipPath></defs><g class="cls-2"><g id="Shadow"><g class="cls-3"><path class="cls-4" d="M522,644.12c-28.19.08-56.38.76-84.52,3.89-10.62,1.18-21,3.78-31.64,4.82-21.24,2.09-42.11,6-63.43,7.8-17.16,1.45-34.4,2.3-51.52,4.14a181.41,181.41,0,0,1-49.74-1.52c-11.79-2.11-23.64-3.3-35.23-6.68-13-3.79-27-6.5-40.56-6.4-19.27.13-38,.15-56.47,6.84-6.47,2.35-14.39,6.21-19.31,11.14C78.29,679.43,76.77,707.58,88,719.28c18.92,19.69,59.31,27.42,85.83,27.79,29.06.39,57.29-1.76,86.4-3,27-1.18,54-2.86,81.11-2.8,55.33.12,110.67,0,165.89-3.69,51.89-3.48,103.91-2.28,155.91-2.28,53.33,0,106.29.41,159.24,7.5,23.06,3.09,46.56,4.17,69.75,6.33,20.76,1.94,40.71,0,61.39-1.82a146.59,146.59,0,0,0,50.39-13.51c12.49-6,34.75-24.5,38.58-38.75,10.74-39.93-151.3-39-176.18-38.88-27.83.1-55.88,1-83.69,0-11.7-.44-23.23-2.73-34.64-5.24s-22.83-1.86-34.37-2.91c-48.09-4.37-96.29-3.73-144.53-3.73C553.38,644.21,537.67,644.07,522,644.12Z" transform="translate(-80.3 -128.33)"/></g></g><g id="Object"><circle class="cls-5" cx="337.02" cy="195.63" r="67.3" transform="translate(-119.92 167.28) rotate(-45)"/><path class="cls-4" d="M370.23,209.85a13.18,13.18,0,0,0-11.9,7.5l-28.44-3.83a18.78,18.78,0,0,0-6.08-13l16.08-23.12A15.61,15.61,0,1,0,330.32,163a15.54,15.54,0,0,0,3.44,9.76l-16.54,23.8a18.85,18.85,0,1,0,11.35,24.77l28.69,3.88a13.16,13.16,0,1,0,13-15.34Z" transform="translate(-80.3 -128.33)"/><path class="cls-6" d="M359,256.62a2.71,2.71,0,0,1-.61-1c-.3-1.08.76-2,1.25-3a6.28,6.28,0,0,0,.46-2.1c.12-1.24.25-2.47.37-3.7a1.43,1.43,0,0,0,0-.62,1.36,1.36,0,0,0-.36-.43,7.33,7.33,0,0,0-5.36-2,7.93,7.93,0,0,0-4.89,2.85,14,14,0,0,0-2.1,3.06,1.92,1.92,0,0,0-.13,2,13.5,13.5,0,0,0,3.22,4.87,11.59,11.59,0,0,1,2.26,2.44,9.06,9.06,0,0,1,.77,2.21,29.51,29.51,0,0,0,1.61,4.42c.13.29,4.92-4,5.29-4.46C362.45,259.09,360.42,258.26,359,256.62Z" transform="translate(-80.3 -128.33)"/><path class="cls-7" d="M387.92,325.69q1.71,1.62,3.47,3.11a14.39,14.39,0,0,0,4.2,2.73,12.21,12.21,0,0,0,4.74.48c7-.43,16.9-4.09,15.62-12.51-.38-2.52-1.86-4.71-3.36-6.75-4.16-5.63-8.86-10.83-13.54-16l-37.6-41.65-9.89,7.14c-2.69,1.94,10.47,27.51,12.05,30.36C369.93,304,378.27,316.49,387.92,325.69Z" transform="translate(-80.3 -128.33)"/><path class="cls-7" d="M394.79,279.74a43.93,43.93,0,0,1,6.2-3.36A116.28,116.28,0,0,1,457.27,266c13.14.89,26,4,38.65,7.78,4.88,1.45,9.83,3,13.95,6s7.37,7.63,7.41,12.72C483.45,296,450.6,299,416.43,297.4a50,50,0,0,1-20.61-6C388,286.91,390.1,283,394.79,279.74Z" transform="translate(-80.3 -128.33)"/><path class="cls-6" d="M449.59,275.59a4,4,0,0,0,1.59-1.24,1,1,0,0,0,.23-.45,1.16,1.16,0,0,0-.07-.58c-.2-.73-2.25-6.38-1.79-6.67a21.47,21.47,0,0,0,8.26-8.76c3.24-6.44,3.41-13.8,2.78-20.72-.91-9.94-4.31-20.85-13.4-24.49-7-2.8-15.72.25-21.33,5.54-7.23,6.8-6.12,18-4.59,26.67a33.34,33.34,0,0,0,8,16.91,21.6,21.6,0,0,0,7.67,5.36c1.42.57,2.75.45,3.17,1.88.52,1.78.27,4.41.43,6.3a1.15,1.15,0,0,0,.33.85,1,1,0,0,0,.63.16c1.53.06,3.05,0,4.57,0A10,10,0,0,0,449.59,275.59Z" transform="translate(-80.3 -128.33)"/><path class="cls-8" d="M451.47,226.31c3.55,2.11,7,5.7,6.37,9.82,1.86-.93,4.17.9,4.44,3s-.87,4.1-2.21,5.72c2.08.35,4.12-1.17,5.07-3.08a14.52,14.52,0,0,0,1.07-6.26c.11-6.33-.16-12.84-2.56-18.69s-7.34-11-13.51-12a21.29,21.29,0,0,0-5.75,0,11.08,11.08,0,0,0-4.5,1.24C428.86,212.52,446.88,223.58,451.47,226.31Z" transform="translate(-80.3 -128.33)"/><path class="cls-8" d="M426,238.79c-1.83,4.93,2.55,10.36,1.42,15.5-.71,3.19-3.47,5.81-3.47,9.08,0,4.23,4.64,7.34,4.69,11.57-2.65-3.38-7.71-4.19-10-7.82a28.94,28.94,0,0,1-2-4.93c-2.72-6.77-10.06-10.05-16.25-13.79a5,5,0,0,1-1.88-1.64c-.94-1.63,0-3.64.83-5.34a29.18,29.18,0,0,0,2.43-16.66c-.81-5.36-3.12-10.7-2.07-16a13.07,13.07,0,0,1,9.35-9.93c4.16-1,8.63.09,12.8-.92,2.76-.68,5.22-2.26,7.8-3.48,6-2.82,13.82-3.4,18.46,1.34,4.1,4.19,4.12,11.25,1.44,16.48-1.66,3.23-4,6-5.71,9.25-1.29,2.48-2.21,5.2-4.33,7.12C435.44,232.3,428.11,233,426,238.79Z" transform="translate(-80.3 -128.33)"/><polygon class="cls-6" points="657.71 208.88 649.45 210.42 643.48 206.09 641.92 206.91 642.82 208.89 636.83 206.74 631.94 208.54 630.02 215.25 632.67 221.9 639.44 223.03 647.14 220.11 658.53 218.5 657.71 208.88"/><path class="cls-9" d="M732.8,334.34,758.49,324c5.53-2.23,11.11-4.36,16.59-6.71,6.89-2.95,5-7.77,9-13.88,9.16-13.75,19.49-28.41,35.22-33.45a9.22,9.22,0,0,1,4.86-.52c3,.72,4.82,4.11,4.76,7.23s-1.52,6-3,8.79c-7.87,15-16,33.1-27.06,46-5,5.79-16.76,6.61-24.17,8.53l-45,11.61Z" transform="translate(-80.3 -128.33)"/><polygon class="cls-10" points="736.33 536.97 736.33 543.94 718.47 552.87 709.54 543.94 718.47 535.01 719.62 535.01 719.91 536.97 736.33 536.97"/><polygon class="cls-10" points="780.33 535.01 781.57 535.01 790.5 543.94 781.57 552.87 763.7 543.94 763.7 536.97 780.13 536.97 780.33 535.01"/><path class="cls-9" d="M759.82,457.57c1.12-11.73,2.28-23.46,3.7-35.16,2.83-23.33,6.68-46.61,13.2-69.2,2.49-8.63,5.37-17.13,8.24-25.64Q790.2,312,795.45,296.5c4.35-12.87,11.68-21.94,24.53-26.44a46.52,46.52,0,0,1,7.19-1.88,6.62,6.62,0,0,1,.16.82,6.68,6.68,0,0,0,1.26,3.5l-8.43.08s-23.79,84.54-24.66,99.11c-.33,5.54-1.44,17.63-2.67,30.37L779.91,404l-.55,48.72-2.16.61c-4.09,1.1-7.43,4.14-10.83,6.52C761.34,463.36,759.13,464.76,759.82,457.57Z" transform="translate(-80.3 -128.33)"/><path class="cls-9" d="M792.83,402.06c-1.94,20.15-4.2,41.93-4.2,41.93s10.44.25,25.55,1.4c-1.12,0-2.24-.06-3.35-.07-10.51-.09-21.41,4.45-31.47,7.39l.55-48.72Z" transform="translate(-80.3 -128.33)"/><path class="cls-11" d="M863.34,451.52c7.21.38,8.1-1,8.1-1s-6.5-26.54-11.06-49.63L881,404l.27,55.13a52.42,52.42,0,0,0-5.51-3.12A68.52,68.52,0,0,0,863.34,451.52Z" transform="translate(-80.3 -128.33)"/><path class="cls-12" d="M779.36,452.71c10.06-2.94,21-7.48,31.47-7.39,1.11,0,2.23,0,3.35.07l2.86.22c7,.57,15,1.32,23.21,2.33l1.21.14c10.57,2.3,17.43,3.2,21.88,3.44A68.52,68.52,0,0,1,875.71,456a52.42,52.42,0,0,1,5.51,3.12l0,11.48-20.14,195H844.62v2h-.1L826.37,536.77l-.08-.73-9.95,131.52h-.09v-2h-16.6l-21-146.45Z" transform="translate(-80.3 -128.33)"/><path class="cls-9" d="M851.39,400c-2.35-11.9-4.19-22.88-4.36-28.83-.51-17.92-2.76-77.08-2.76-77.08l-10.94-22.63-2,0,.43-.05c-.47.05.23-4.38.4-4.77,9.51-.32,21.76,5,27.75,12.51,4.44,5.53,7.08,12.29,9.65,18.93,7.24,18.69,10.52,36,14.13,55.67,2.3,12.54,4.43,25,6.1,37.46a391.82,391.82,0,0,1,3.54,41.18c0,1.51.34,5.73.51,10.78.35,10.57.13,24.7-4.25,25.23a4.22,4.22,0,0,1-2.33-.63c-5.63-2.78-10.06-6.41-15-9.58L859,420Z" transform="translate(-80.3 -128.33)"/><path class="cls-13" d="M788.63,444s10.11.25,24.73,1.4l2.77.22c6.82.57,14.47,1.32,22.47,2.33l1.18.14c7.11,1.6,13.83,3.3,21.13,3.72,2.75.16,5.7,2.44,7.86.43,1.82-1.7,1-9,1-11.24a128.4,128.4,0,0,0-3-25.75c-3.62-17.61-9.45-34.77-11.64-52.67-.79-6.5-1.09-13.06-1.91-19.55-1.93-15.22-6.23-29.43-7.71-44.69-.31-3.13-1.43-26.62-6.87-25.94l-8.08,1a4.56,4.56,0,0,1-2.08-.06,2.36,2.36,0,0,1-.88-.52,2.7,2.7,0,0,1-.28-.31l-8.17.08s-23,84.54-23.87,99.11c-.32,5.54-1.39,17.63-2.58,30.37C790.81,422.21,788.63,444,788.63,444Z" transform="translate(-80.3 -128.33)"/><path class="cls-8" d="M812.5,215.82a33.53,33.53,0,0,0-3.22,15.11c0,1.39,0,3-1.06,3.86s0,2.79-1,1.67-4.2-5-4.41-6.48a56.31,56.31,0,0,1-.51-10.38c.14-3,.58-6.19,2.4-8.57a16.65,16.65,0,0,1,4-3.46,21.39,21.39,0,0,1,6.77-3.53c4.28-1,7,.4,3.35,3.66A26.72,26.72,0,0,0,812.5,215.82Z" transform="translate(-80.3 -128.33)"/><path class="cls-6" d="M842.32,273.34,824.59,276a111.08,111.08,0,0,1-2.39-15.75c-5.22-.63-11.39-2-13.44-7.43a18.39,18.39,0,0,1-.87-5.45l-1.32-22.9a22.47,22.47,0,0,1,.46-7.86c1.35-4.38,5.18-7.15,9-9,9.72-4.63,21.29-5.08,30.75.3a16.86,16.86,0,0,1,6.46,6c2.38,4.08,2.37,9.28,2.27,14.13q-.12,6.73-.25,13.46c-.09,5.16-.55,11.11-4.34,14-2,1.55-4.69,2-6.39,3.92C841.52,262.85,843.26,268.63,842.32,273.34Z" transform="translate(-80.3 -128.33)"/><path class="cls-8" d="M806.77,251.85c1.17,4.71,3.66,9.13,7.6,11.6,4.46,2.8,9.89,2.73,15,2.58l8.41-.23c7.1-.2,14.1-1.51,17.36-9.28a23.46,23.46,0,0,0,1.38-11.62,7.5,7.5,0,0,0-.86-3.09,2.58,2.58,0,0,0-2.52-1.39c-1.25.25-1.93,1.66-2.69,2.77-1.64,2.43-4.7,3.89-7.28,2.78a10.12,10.12,0,0,1-2.11-1.39l-.82-.64a18,18,0,0,0-9.37-3.13c-2.85-.23-7.06-1.07-9,1.49l-3.44,4.47a7.09,7.09,0,0,1-1.59,1.64,4.54,4.54,0,0,1-2.17.65c-1.9.13-4.08-.65-4.83-2.58a10,10,0,0,1-.41-2.68,4.27,4.27,0,0,0-.85-2.52c-2.22-2.5-2.62,1.68-2.63,3.1A29.74,29.74,0,0,0,806.77,251.85Zm19.37.3a7.76,7.76,0,0,0,7.12.43c1.26-.46,1.91,1.69.66,2.15a9.71,9.71,0,0,1-8.73-.57C824,253.45,825,251.44,826.14,252.15Z" transform="translate(-80.3 -128.33)"/><path class="cls-8" d="M802.75,203.06a41.33,41.33,0,0,1-1.38-5.58,10.87,10.87,0,0,0,5.46.18c-.05-1.09-.11-2.19-.16-3.29,0-.91,12.08-2.19,13.07-2.32,9.2-1.26,17.61-2.44,26.23,2.17,7.35,3.94,12.26,10.13,13.78,18.45,1.45,8-.6,18.53-4.81,25.41-.08-2.13.87-7.22.27-9.22a18.27,18.27,0,0,0-2.24-5.69,23.62,23.62,0,0,0-8.68-8.37A45.06,45.06,0,0,0,826,209.57c-5.8-.51-12.86-.9-18.48,1-2.7.89-3.12,1.61-4.92-1.11-.31-.48-2.92-6.14-2.7-6.16Z" transform="translate(-80.3 -128.33)"/><polygon class="cls-14" points="398.94 528.38 316.31 527.46 324.48 464.31 392.17 465.06 398.94 528.38"/><g class="cls-15"><polygon points="322.13 481.79 393.63 478.74 395.62 497.34 322.13 481.79"/></g><path class="cls-16" d="M220.67,299.22V601.16a9,9,0,0,0,9,9H646.92a9,9,0,0,0,9-9V299.22a5.9,5.9,0,0,0-5.9-5.9H226.57A5.9,5.9,0,0,0,220.67,299.22Z" transform="translate(-80.3 -128.33)"/><path class="cls-8" d="M220.67,299.18V570.93H655.88V299.18a6.33,6.33,0,0,0-6.33-6.34H227A6.33,6.33,0,0,0,220.67,299.18Z" transform="translate(-80.3 -128.33)"/><rect class="cls-17" x="151.84" y="177.21" width="412.27" height="250.59"/><path class="cls-16" d="M300.92,519.68H415a8.24,8.24,0,0,1,8.24,8.24v14.54a0,0,0,0,1,0,0H292.68a0,0,0,0,1,0,0V527.91A8.24,8.24,0,0,1,300.92,519.68Z"/><rect class="cls-17" x="151.84" y="196.21" width="412.27" height="124.17"/><g class="cls-18"><rect class="cls-19" x="183.25" y="338.59" width="112.42" height="65.59"/><rect class="cls-19" x="301.41" y="338.59" width="112.42" height="65.59"/><rect class="cls-19" x="419.58" y="338.59" width="112.42" height="65.59"/></g><rect class="cls-20" x="182.44" y="410.6" width="61.95" height="7.06"/><rect class="cls-20" x="301.41" y="410.6" width="61.95" height="7.06"/><rect class="cls-20" x="419.58" y="410.6" width="61.95" height="7.06"/><g class="cls-21"><polygon class="cls-4" points="358.87 176.68 186.63 427.81 151.84 427.81 151.84 177.21 358.87 176.68"/></g><path class="cls-8" d="M190.51,683.83l-.57,6.65-4.39,5.41s-1.26,8.12,1.14,9.54,39.85,5.87,39.85,5.87l3.86-5.75-3.09-6.36-19.8-9.06-6.8-7.55Z" transform="translate(-80.3 -128.33)"/><path class="cls-8" d="M229.67,669.47l-.58,6.65-4.32,5.41s-1.25,8.12,1.1,9.54,39.21,5.81,39.21,5.81l3.81-5.76-3-6.35-19.47-9-6.68-7.54Z" transform="translate(-80.3 -128.33)"/><path class="cls-22" d="M184.6,553.4c3.21,6.77,6.11,12.9,6.63,21.62s-1.08,17.11-2.3,25.61c-4.2,29.42-3.79,59.28-3.37,89q15.38.66,30.77.64c1.75,0,3.71-.11,4.87-1.41s1-3.28.85-5c-2.35-21.11-2.19-42.47-1.87-63.68.15-10.44.51-19.38,2.65-29.46s1.75-20.39,1.07-30.54c-1.69-24.86-6.72-49.26-8.11-74.11-.25-4.51-.68-9.35-3.6-12.8-3.5-4.14-9.51-5-14.94-5-14.92,0-31.76,2.36-32.51,20.45-.25,6,1.34,12,3,17.77,3.87,13.28,8.07,26.69,13.43,39.46C182.31,548.59,183.47,551,184.6,553.4Z" transform="translate(-80.3 -128.33)"/><path class="cls-22" d="M226.19,542c3.07,6.92,5.83,13.2,5.94,21.93s-2,17-3.77,25.46c-6,29.17-7.08,59-8.17,88.72q16.31,1.42,32.65,2.15c1.85.09,3.94.08,5.24-1.17s1.28-3.22,1.16-5c-1.76-26.38-3.73-52.85-1.88-79.22.72-10.09,2-20.15,2.56-30.25,1.1-19.67-.48-39.37-2.88-58.91-1.47-12,.62-37.8-11.56-45.08-5.51-3.3-12.48-3.79-18.93-2.8a24.63,24.63,0,0,0-9.34,3.11c-5.36,3.32-8.19,9.43-8.76,15.44s.8,12,2.29,17.9c3.43,13.45,7.2,27.05,12.23,40.06C224,537.06,225.12,539.56,226.19,542Z" transform="translate(-80.3 -128.33)"/><path class="cls-9" d="M172.77,315.53a32.12,32.12,0,0,0-15.84,22.3c-9.29,47.62-3.56,96.74,2.21,144.92.39,3.28,1,6.95,3.67,8.91,3,2.21,7.23,1.2,10.83.15A528.17,528.17,0,0,1,260.16,474q-2.66-53.14-10.29-105.87c-1.37-9.49-2.89-19.06-6.44-28-7.91-19.89-21.34-34.07-43.86-32.23C190,308.75,180.47,311,172.77,315.53Z" transform="translate(-80.3 -128.33)"/><path class="cls-23" d="M222.08,268.82c.38,6.06.67,12.53-2.36,17.8-2.58,4.48-7.18,7.38-10.71,11.16a16,16,0,0,0-4.35,8.48c-.39,3.13,1.29,5.81,1.27,8.94a1.8,1.8,0,0,1-.15.86,1.6,1.6,0,0,1-.7.61,9.87,9.87,0,0,1-4.71.81,46,46,0,0,1-5.87,0c-2.47-.3-2-.8-2.2-3.31a48.75,48.75,0,0,0-2.07-11.1c-2.49-7.39-7.81-13.7-9.31-21.44-1.67-8.57.82-17,3.54-25.12,1.21-3.64,2.55-7.36,5-10.28,5.49-6.41,18.36-8.46,24.52-1.91C221.34,252.14,221.43,258.53,222.08,268.82Z" transform="translate(-80.3 -128.33)"/><path class="cls-8" d="M220.13,264.66a19,19,0,0,1,1.62,19.23c4.63-3.23,6.81-9,7.74-14.56a33.28,33.28,0,0,0,.38-9.29c-1.11-9.75-8.84-18.76-18.56-20.05-6.44-.86-6.41,7.35-3.9,11.34C210.7,256.58,216.5,259.69,220.13,264.66Z" transform="translate(-80.3 -128.33)"/><path class="cls-8" d="M203.09,234.89c-3.6-1.72-7.77-1.82-11.75-1.48-5.45.47-16.43,2.08-22.91,6.14-3.65-7.81-14.2-13.72-21.9-9.67-4.51,2.38-6.46,7.54-4.38,11.58a8.32,8.32,0,0,0,2.23,2.71,23.26,23.26,0,0,1,2.47,1.88c2.62,2.74.19,6.63-1.74,9.74a32.73,32.73,0,0,0-4.4,11.18,10.31,10.31,0,0,0,.43,6.56,6.73,6.73,0,0,0,6.15,3.67c4.89-.21,5.88-4.38,6.13-8.17a31.47,31.47,0,0,1,3-12.26c.73-1.49,1.72-3.06,3.32-3.49a3.56,3.56,0,0,1,.92-.11,26.31,26.31,0,0,0-1.09,11.4A48.08,48.08,0,0,0,168.65,287a38.14,38.14,0,0,0,19.78,13.72c.55-5-4.7-8.75-5.65-13.66a11.23,11.23,0,0,1,1.69-7.77,33.7,33.7,0,0,1,5.24-6.2l9.9-9.93a50.19,50.19,0,0,0,7.41-8.68C211.11,247.93,210.92,238.64,203.09,234.89Z" transform="translate(-80.3 -128.33)"/><g class="cls-24"><g class="cls-25"><rect class="cls-26" x="551.68" y="195.22" width="0.55" height="125.71"/><rect class="cls-27" x="551.04" y="195.22" width="0.64" height="125.71"/><rect class="cls-28" x="550.4" y="195.22" width="0.64" height="125.71"/><rect class="cls-29" x="549.76" y="195.22" width="0.64" height="125.71"/><rect class="cls-30" x="549.12" y="195.22" width="0.64" height="125.71"/><rect class="cls-31" x="548.48" y="195.22" width="0.64" height="125.71"/><rect class="cls-32" x="547.84" y="195.22" width="0.64" height="125.71"/><rect class="cls-33" x="547.2" y="195.22" width="0.64" height="125.71"/><rect class="cls-34" x="546.56" y="195.22" width="0.64" height="125.71"/><rect class="cls-35" x="545.92" y="195.22" width="0.64" height="125.71"/><rect class="cls-36" x="545.28" y="195.22" width="0.64" height="125.71"/><rect class="cls-37" x="544.64" y="195.22" width="0.64" height="125.71"/><rect class="cls-38" x="544" y="195.22" width="0.64" height="125.71"/><rect class="cls-39" x="543.36" y="195.22" width="0.64" height="125.71"/><rect class="cls-40" x="542.72" y="195.22" width="0.64" height="125.71"/><rect class="cls-41" x="542.09" y="195.22" width="0.64" height="125.71"/><rect class="cls-42" x="541.45" y="195.22" width="0.64" height="125.71"/><rect class="cls-43" x="540.81" y="195.22" width="0.64" height="125.71"/><rect class="cls-44" x="540.17" y="195.22" width="0.64" height="125.71"/><rect class="cls-45" x="539.53" y="195.22" width="0.64" height="125.71"/><rect class="cls-46" x="538.89" y="195.22" width="0.64" height="125.71"/><rect class="cls-47" x="538.25" y="195.22" width="0.64" height="125.71"/><rect class="cls-48" x="537.61" y="195.22" width="0.64" height="125.71"/><rect class="cls-49" x="536.97" y="195.22" width="0.64" height="125.71"/><rect class="cls-50" x="536.33" y="195.22" width="0.64" height="125.71"/><rect class="cls-51" x="535.69" y="195.22" width="0.64" height="125.71"/><rect class="cls-52" x="535.05" y="195.22" width="0.64" height="125.71"/><rect class="cls-53" x="534.41" y="195.22" width="0.64" height="125.71"/><rect class="cls-54" x="533.77" y="195.22" width="0.64" height="125.71"/><rect class="cls-55" x="533.13" y="195.22" width="0.64" height="125.71"/><rect class="cls-56" x="532.49" y="195.22" width="0.64" height="125.71"/><rect class="cls-57" x="531.85" y="195.22" width="0.64" height="125.71"/><rect class="cls-58" x="531.21" y="195.22" width="0.64" height="125.71"/><rect class="cls-59" x="530.57" y="195.22" width="0.64" height="125.71"/><rect class="cls-60" x="529.93" y="195.22" width="0.64" height="125.71"/><rect class="cls-61" x="529.29" y="195.22" width="0.64" height="125.71"/><rect class="cls-62" x="528.65" y="195.22" width="0.64" height="125.71"/><rect class="cls-63" x="528.01" y="195.22" width="0.64" height="125.71"/><rect class="cls-64" x="527.37" y="195.22" width="0.64" height="125.71"/><rect class="cls-65" x="526.73" y="195.22" width="0.64" height="125.71"/><rect class="cls-66" x="526.09" y="195.22" width="0.64" height="125.71"/><rect class="cls-67" x="525.45" y="195.22" width="0.64" height="125.71"/><rect class="cls-68" x="524.81" y="195.22" width="0.64" height="125.71"/><rect class="cls-69" x="524.17" y="195.22" width="0.64" height="125.71"/><rect class="cls-70" x="523.53" y="195.22" width="0.64" height="125.71"/><rect class="cls-71" x="522.9" y="195.22" width="0.64" height="125.71"/><rect class="cls-72" x="522.26" y="195.22" width="0.64" height="125.71"/><rect class="cls-73" x="521.62" y="195.22" width="0.64" height="125.71"/><rect class="cls-74" x="520.98" y="195.22" width="0.64" height="125.71"/><rect class="cls-75" x="520.34" y="195.22" width="0.64" height="125.71"/><rect class="cls-76" x="519.7" y="195.22" width="0.64" height="125.71"/><rect class="cls-77" x="519.06" y="195.22" width="0.64" height="125.71"/><rect class="cls-78" x="518.42" y="195.22" width="0.64" height="125.71"/><rect class="cls-79" x="517.78" y="195.22" width="0.64" height="125.71"/><rect class="cls-80" x="517.14" y="195.22" width="0.64" height="125.71"/><rect class="cls-81" x="516.5" y="195.22" width="0.64" height="125.71"/><rect class="cls-82" x="515.86" y="195.22" width="0.64" height="125.71"/><rect class="cls-83" x="515.22" y="195.22" width="0.64" height="125.71"/><rect class="cls-84" x="514.58" y="195.22" width="0.64" height="125.71"/><rect class="cls-85" x="513.94" y="195.22" width="0.64" height="125.71"/><rect class="cls-86" x="513.3" y="195.22" width="0.64" height="125.71"/><rect class="cls-87" x="512.66" y="195.22" width="0.64" height="125.71"/><rect class="cls-88" x="512.02" y="195.22" width="0.64" height="125.71"/><rect class="cls-89" x="511.38" y="195.22" width="0.64" height="125.71"/><rect class="cls-90" x="510.74" y="195.22" width="0.64" height="125.71"/><rect class="cls-91" x="510.1" y="195.22" width="0.64" height="125.71"/><rect class="cls-92" x="509.46" y="195.22" width="0.64" height="125.71"/><rect class="cls-93" x="508.82" y="195.22" width="0.64" height="125.71"/><rect class="cls-94" x="508.18" y="195.22" width="0.64" height="125.71"/><rect class="cls-95" x="507.54" y="195.22" width="0.64" height="125.71"/><rect class="cls-96" x="506.9" y="195.22" width="0.64" height="125.71"/><rect class="cls-97" x="506.26" y="195.22" width="0.64" height="125.71"/><rect class="cls-98" x="505.62" y="195.22" width="0.64" height="125.71"/><rect class="cls-99" x="504.98" y="195.22" width="0.64" height="125.71"/><rect class="cls-100" x="504.34" y="195.22" width="0.64" height="125.71"/><rect class="cls-101" x="503.71" y="195.22" width="0.64" height="125.71"/><rect class="cls-102" x="503.07" y="195.22" width="0.64" height="125.71"/><rect class="cls-103" x="502.43" y="195.22" width="0.64" height="125.71"/><rect class="cls-104" x="501.79" y="195.22" width="0.64" height="125.71"/><rect class="cls-105" x="501.15" y="195.22" width="0.64" height="125.71"/><rect class="cls-106" x="500.51" y="195.22" width="0.64" height="125.71"/><rect class="cls-107" x="499.87" y="195.22" width="0.64" height="125.71"/><rect class="cls-108" x="499.23" y="195.22" width="0.64" height="125.71"/><rect class="cls-109" x="498.59" y="195.22" width="0.64" height="125.71"/><rect class="cls-110" x="497.95" y="195.22" width="0.64" height="125.71"/><rect class="cls-111" x="497.31" y="195.22" width="0.64" height="125.71"/><rect class="cls-112" x="496.67" y="195.22" width="0.64" height="125.71"/><rect class="cls-113" x="496.03" y="195.22" width="0.64" height="125.71"/><rect class="cls-114" x="495.39" y="195.22" width="0.64" height="125.71"/><rect class="cls-115" x="494.75" y="195.22" width="0.64" height="125.71"/><rect class="cls-116" x="494.11" y="195.22" width="0.64" height="125.71"/><rect class="cls-117" x="493.47" y="195.22" width="0.64" height="125.71"/><rect class="cls-118" x="492.83" y="195.22" width="0.64" height="125.71"/><rect class="cls-119" x="492.19" y="195.22" width="0.64" height="125.71"/><rect class="cls-120" x="491.55" y="195.22" width="0.64" height="125.71"/><rect class="cls-121" x="490.91" y="195.22" width="0.64" height="125.71"/><rect class="cls-122" x="490.27" y="195.22" width="0.64" height="125.71"/><rect class="cls-123" x="489.63" y="195.22" width="0.64" height="125.71"/><rect class="cls-124" x="488.99" y="195.22" width="0.64" height="125.71"/><rect class="cls-125" x="488.35" y="195.22" width="0.64" height="125.71"/><rect class="cls-126" x="487.71" y="195.22" width="0.64" height="125.71"/><rect class="cls-127" x="487.07" y="195.22" width="0.64" height="125.71"/><rect class="cls-128" x="486.43" y="195.22" width="0.64" height="125.71"/><rect class="cls-129" x="485.79" y="195.22" width="0.64" height="125.71"/><rect class="cls-130" x="485.15" y="195.22" width="0.64" height="125.71"/><rect class="cls-131" x="484.52" y="195.22" width="0.64" height="125.71"/><rect class="cls-132" x="483.88" y="195.22" width="0.64" height="125.71"/><rect class="cls-133" x="483.24" y="195.22" width="0.64" height="125.71"/><rect class="cls-134" x="482.6" y="195.22" width="0.64" height="125.71"/><rect class="cls-135" x="481.96" y="195.22" width="0.64" height="125.71"/><rect class="cls-136" x="481.32" y="195.22" width="0.64" height="125.71"/><rect class="cls-137" x="480.68" y="195.22" width="0.64" height="125.71"/><rect class="cls-138" x="480.04" y="195.22" width="0.64" height="125.71"/><rect class="cls-139" x="479.4" y="195.22" width="0.64" height="125.71"/><rect class="cls-140" x="478.76" y="195.22" width="0.64" height="125.71"/><rect class="cls-141" x="478.12" y="195.22" width="0.64" height="125.71"/><rect class="cls-142" x="477.48" y="195.22" width="0.64" height="125.71"/><rect class="cls-143" x="476.84" y="195.22" width="0.64" height="125.71"/><rect class="cls-144" x="476.2" y="195.22" width="0.64" height="125.71"/><rect class="cls-145" x="475.56" y="195.22" width="0.64" height="125.71"/><rect class="cls-146" x="474.92" y="195.22" width="0.64" height="125.71"/><rect class="cls-147" x="474.28" y="195.22" width="0.64" height="125.71"/><rect class="cls-148" x="473.64" y="195.22" width="0.64" height="125.71"/><rect class="cls-149" x="473" y="195.22" width="0.64" height="125.71"/><rect class="cls-150" x="472.36" y="195.22" width="0.64" height="125.71"/><rect class="cls-150" x="471.72" y="195.22" width="0.64" height="125.71"/><rect class="cls-151" x="471.08" y="195.22" width="0.64" height="125.71"/><rect class="cls-152" x="470.44" y="195.22" width="0.64" height="125.71"/><rect class="cls-153" x="469.8" y="195.22" width="0.64" height="125.71"/><rect class="cls-154" x="469.16" y="195.22" width="0.64" height="125.71"/><rect class="cls-8" x="468.52" y="195.22" width="0.64" height="125.71"/><rect class="cls-155" x="467.88" y="195.22" width="0.64" height="125.71"/><rect class="cls-156" x="467.24" y="195.22" width="0.64" height="125.71"/><rect class="cls-156" x="466.6" y="195.22" width="0.64" height="125.71"/><rect class="cls-157" x="465.96" y="195.22" width="0.64" height="125.71"/><rect class="cls-158" x="465.33" y="195.22" width="0.64" height="125.71"/><rect class="cls-159" x="464.69" y="195.22" width="0.64" height="125.71"/><rect class="cls-160" x="464.05" y="195.22" width="0.64" height="125.71"/><rect class="cls-161" x="463.41" y="195.22" width="0.64" height="125.71"/><rect class="cls-162" x="462.77" y="195.22" width="0.64" height="125.71"/><rect class="cls-162" x="462.13" y="195.22" width="0.64" height="125.71"/><rect class="cls-163" x="461.49" y="195.22" width="0.64" height="125.71"/><rect class="cls-164" x="460.85" y="195.22" width="0.64" height="125.71"/><rect class="cls-165" x="460.21" y="195.22" width="0.64" height="125.71"/><rect class="cls-166" x="459.57" y="195.22" width="0.64" height="125.71"/><rect class="cls-166" x="458.93" y="195.22" width="0.64" height="125.71"/><rect class="cls-167" x="458.29" y="195.22" width="0.64" height="125.71"/><rect class="cls-168" x="457.65" y="195.22" width="0.64" height="125.71"/><rect class="cls-169" x="457.01" y="195.22" width="0.64" height="125.71"/><rect class="cls-170" x="456.37" y="195.22" width="0.64" height="125.71"/><rect class="cls-170" x="455.73" y="195.22" width="0.64" height="125.71"/><rect class="cls-171" x="455.09" y="195.22" width="0.64" height="125.71"/><rect class="cls-172" x="454.45" y="195.22" width="0.64" height="125.71"/><rect class="cls-173" x="453.81" y="195.22" width="0.64" height="125.71"/><rect class="cls-173" x="453.17" y="195.22" width="0.64" height="125.71"/><rect class="cls-174" x="452.53" y="195.22" width="0.64" height="125.71"/><rect class="cls-175" x="451.89" y="195.22" width="0.64" height="125.71"/><rect class="cls-175" x="451.25" y="195.22" width="0.64" height="125.71"/><rect class="cls-176" x="450.61" y="195.22" width="0.64" height="125.71"/><rect class="cls-177" x="449.97" y="195.22" width="0.64" height="125.71"/><rect class="cls-178" x="449.33" y="195.22" width="0.64" height="125.71"/><rect class="cls-178" x="448.69" y="195.22" width="0.64" height="125.71"/><rect class="cls-179" x="448.05" y="195.22" width="0.64" height="125.71"/><rect class="cls-180" x="447.41" y="195.22" width="0.64" height="125.71"/><rect class="cls-180" x="446.77" y="195.22" width="0.64" height="125.71"/><rect class="cls-181" x="446.14" y="195.22" width="0.64" height="125.71"/><rect class="cls-182" x="445.5" y="195.22" width="0.64" height="125.71"/><rect class="cls-182" x="444.86" y="195.22" width="0.64" height="125.71"/><rect class="cls-183" x="444.22" y="195.22" width="0.64" height="125.71"/><rect class="cls-184" x="443.58" y="195.22" width="0.64" height="125.71"/><rect class="cls-184" x="442.94" y="195.22" width="0.64" height="125.71"/><rect class="cls-185" x="442.3" y="195.22" width="0.64" height="125.71"/><rect class="cls-185" x="441.66" y="195.22" width="0.64" height="125.71"/><rect class="cls-186" x="441.02" y="195.22" width="0.64" height="125.71"/><rect class="cls-187" x="440.38" y="195.22" width="0.64" height="125.71"/><rect class="cls-187" x="439.74" y="195.22" width="0.64" height="125.71"/><rect class="cls-188" x="439.1" y="195.22" width="0.64" height="125.71"/><rect class="cls-188" x="438.46" y="195.22" width="0.64" height="125.71"/><rect class="cls-189" x="437.82" y="195.22" width="0.64" height="125.71"/><rect class="cls-189" x="437.18" y="195.22" width="0.64" height="125.71"/><rect class="cls-190" x="436.54" y="195.22" width="0.64" height="125.71"/><rect class="cls-191" x="435.9" y="195.22" width="0.64" height="125.71"/><rect class="cls-191" x="435.26" y="195.22" width="0.64" height="125.71"/><rect class="cls-192" x="434.62" y="195.22" width="0.64" height="125.71"/><rect class="cls-192" x="433.98" y="195.22" width="0.64" height="125.71"/><rect class="cls-193" x="433.34" y="195.22" width="0.64" height="125.71"/><rect class="cls-193" x="432.7" y="195.22" width="0.64" height="125.71"/><rect class="cls-194" x="432.06" y="195.22" width="0.64" height="125.71"/><rect class="cls-194" x="431.42" y="195.22" width="0.64" height="125.71"/><rect class="cls-195" x="430.78" y="195.22" width="0.64" height="125.71"/><rect class="cls-195" x="430.14" y="195.22" width="0.64" height="125.71"/><rect class="cls-196" x="429.5" y="195.22" width="0.64" height="125.71"/><rect class="cls-196" x="428.86" y="195.22" width="0.64" height="125.71"/><rect class="cls-196" x="428.22" y="195.22" width="0.64" height="125.71"/><rect class="cls-197" x="427.59" y="195.22" width="0.64" height="125.71"/><rect class="cls-197" x="426.95" y="195.22" width="0.64" height="125.71"/><rect class="cls-198" x="426.31" y="195.22" width="0.64" height="125.71"/><rect class="cls-198" x="425.67" y="195.22" width="0.64" height="125.71"/><rect class="cls-199" x="425.03" y="195.22" width="0.64" height="125.71"/><rect class="cls-199" x="424.39" y="195.22" width="0.64" height="125.71"/><rect class="cls-199" x="423.75" y="195.22" width="0.64" height="125.71"/><rect class="cls-200" x="423.11" y="195.22" width="0.64" height="125.71"/><rect class="cls-200" x="422.47" y="195.22" width="0.64" height="125.71"/><rect class="cls-200" x="421.83" y="195.22" width="0.64" height="125.71"/><rect class="cls-201" x="421.19" y="195.22" width="0.64" height="125.71"/><rect class="cls-201" x="420.55" y="195.22" width="0.64" height="125.71"/><rect class="cls-201" x="419.91" y="195.22" width="0.64" height="125.71"/><rect class="cls-202" x="419.27" y="195.22" width="0.64" height="125.71"/><rect class="cls-202" x="418.63" y="195.22" width="0.64" height="125.71"/><rect class="cls-202" x="417.99" y="195.22" width="0.64" height="125.71"/><rect class="cls-203" x="417.35" y="195.22" width="0.64" height="125.71"/><rect class="cls-203" x="416.71" y="195.22" width="0.64" height="125.71"/><rect class="cls-203" x="416.07" y="195.22" width="0.64" height="125.71"/><rect class="cls-203" x="415.43" y="195.22" width="0.64" height="125.71"/><rect class="cls-204" x="414.79" y="195.22" width="0.64" height="125.71"/><rect class="cls-204" x="414.15" y="195.22" width="0.64" height="125.71"/><rect class="cls-204" x="413.51" y="195.22" width="0.64" height="125.71"/><rect class="cls-204" x="412.87" y="195.22" width="0.64" height="125.71"/><rect class="cls-204" x="412.23" y="195.22" width="0.64" height="125.71"/><rect x="411.59" y="195.22" width="0.64" height="125.71"/><rect x="410.95" y="195.22" width="0.64" height="125.71"/><rect x="410.31" y="195.22" width="0.64" height="125.71"/><rect x="409.67" y="195.22" width="0.64" height="125.71"/><rect x="409.03" y="195.22" width="0.64" height="125.71"/><rect x="408.4" y="195.22" width="0.64" height="125.71"/><rect x="154.81" y="195.22" width="253.58" height="125.71"/></g></g><rect class="cls-205" x="141.95" y="184.64" width="397.42" height="125.71"/><path class="cls-206" d="M248.29,308.56a5.24,5.24,0,0,0-.88.16c-2.72.78-3.29,3.54-5.42,4.86-1,.59-4.27.11-3.93,1.94.13.67.38,3,.78,5.27-.38,1.9-.67,3.82-1.23,5.67-1.41,4.7-9.91,13-5,17.57a10.85,10.85,0,0,0,3.12,2.32,9.65,9.65,0,0,0,3.11.6c.83.06,2.13.34,2.74-.19s1-2.67,1.32-3.48l2.64-7c.87-2.28,2.1-4.89,4.49-5.36a11.57,11.57,0,0,0,1.58-.26,4.14,4.14,0,0,0,1.47-1,28.69,28.69,0,0,0,4.32-5.08c2.15-3.33-.3-9-1.44-12.32a6,6,0,0,0-1.22-2.28c-1-1-2.52-1.19-3.92-1.33A11.72,11.72,0,0,0,248.29,308.56Z" transform="translate(-80.3 -128.33)"/><path class="cls-9" d="M220.38,396.55c3.69-5.17,6.8-11,9.81-15.36a150.18,150.18,0,0,0,19.29-39.47,55.3,55.3,0,0,0-19.84-8.78,239.4,239.4,0,0,1-22,31.08c-2.41,2.88-7.14,9.3-11.47,5.94-1.94-1.51-2.73-4-3.41-6.41l-3.84-13.37c-2-6.84-3.39-15.24-10.86-17.73-7.91-2.65-15.55,2.25-18.89,9.46-2.65,5.72-2.83,12.26-2.46,18.55,1.05,18.19,18.05,31.66,30.55,42.68a23.94,23.94,0,0,0,7,4.57C206.16,412.36,214.1,405.34,220.38,396.55Z" transform="translate(-80.3 -128.33)"/><path class="cls-13" d="M889.83,536.2c-2,0-3.88.07-5.79.2C877.56,499.28,844.77,471,805.3,471a80.27,80.27,0,0,0-48.09,15.87,84.32,84.32,0,0,0-73.27-42.15c-46.48,0-84.16,37.18-84.16,83a84.41,84.41,0,0,0,.44,8.61c-1.91-.13-3.83-.2-5.77-.2-46.49,0-84.17,37.17-84.17,83s37.68,83,84.17,83H889.83c46.49,0,84.17-37.18,84.17-83S936.32,536.2,889.83,536.2Z" transform="translate(-80.3 -128.33)"/><g class="cls-3"><path class="cls-4" d="M718.1,463.17a82.05,82.05,0,0,0-24.73-3.79c-44.85,0-81.22,35.87-81.22,80.12a78.61,78.61,0,0,0,.44,8.31c-1.84-.13-3.7-.19-5.58-.19-44.85,0-81.21,35.87-81.21,80.12a78.85,78.85,0,0,0,10.78,39.9c-3.1-36.15,2.45-105.16,90.28-103.48C626,540.56,630.21,466.57,718.1,463.17Z" transform="translate(-80.3 -128.33)"/></g><g class="cls-207"><path class="cls-8" d="M635.15,702.26H889.83c46.49,0,84.17-37.18,84.17-83a81.81,81.81,0,0,0-4.89-27.91C913.77,698.85,726.6,689.33,635.15,702.26Z" transform="translate(-80.3 -128.33)"/></g><path class="cls-56" d="M684.49,373.26v12.16a7.06,7.06,0,0,0,7,7.16h31.17a7.06,7.06,0,0,0,7-7.16V373.26Z" transform="translate(-80.3 -128.33)"/><path class="cls-7" d="M782.65,209.91c0-42.8-33.85-77.5-75.59-77.5s-75.6,34.7-75.6,77.5a78.5,78.5,0,0,0,11.67,41.36h0c21,36.13,25.9,66.4,25.9,66.4h76.07S750,287.4,771,251.27h0A78.58,78.58,0,0,0,782.65,209.91Z" transform="translate(-80.3 -128.33)"/><path class="cls-208" d="M668.14,317.67v51.68a3.82,3.82,0,0,0,3.72,3.91h70.39a3.82,3.82,0,0,0,3.72-3.91V317.67Z" transform="translate(-80.3 -128.33)"/><g class="cls-209"><path class="cls-8" d="M781.3,195.4C762.1,233.88,724.82,293.33,669,317.46c0,.12,0,.21,0,.21h76.07S750,287.4,771,251.27h0a78.58,78.58,0,0,0,11.66-41.36A79.58,79.58,0,0,0,781.3,195.4Z" transform="translate(-80.3 -128.33)"/></g><path class="cls-210" d="M643.82,216.28c0-37.37,29.54-67.66,66-67.66A65.31,65.31,0,0,1,762.12,175c-11.39-20.29-32.75-33.94-57.22-33.94-36.45,0-66,30.29-66,67.66A68.44,68.44,0,0,0,652.59,250,68.63,68.63,0,0,1,643.82,216.28Z" transform="translate(-80.3 -128.33)"/><polygon class="cls-211" points="612.06 189.34 602.9 90.14 615.66 101.01 626.79 82.93 638.08 100.44 650.62 90.04 641.45 189.34 645.36 189.34 655.36 80.99 638.96 94.58 626.72 75.59 614.74 95.05 598.14 80.9 608.15 189.34 612.06 189.34"/><path class="cls-212" d="M687.54,307.78l.91,9.89h3.91l-1.13-12.22Q689.4,306.64,687.54,307.78Z" transform="translate(-80.3 -128.33)"/><path class="cls-212" d="M725.53,276.78l-3.78,40.89h3.91l4.2-45.49C728.44,273.73,727,275.27,725.53,276.78Z" transform="translate(-80.3 -128.33)"/><rect class="cls-213" x="587.84" y="202.17" width="77.83" height="9.54"/><rect class="cls-213" x="587.84" y="222.55" width="77.83" height="9.54"/><path class="cls-214" d="M710.81,350.88H746V340H724.28A143.16,143.16,0,0,1,710.81,350.88Z" transform="translate(-80.3 -128.33)"/><path class="cls-214" d="M746,330.5V317.67h-1.23c-3.57,4.66-7.19,8.93-10.82,12.83Z" transform="translate(-80.3 -128.33)"/><path class="cls-214" d="M671.86,373.26h70.39a3.82,3.82,0,0,0,3.72-3.91v-8.92H695.15a112.71,112.71,0,0,1-26.88,9.89A3.76,3.76,0,0,0,671.86,373.26Z" transform="translate(-80.3 -128.33)"/><path class="cls-215" d="M724.28,340H746V330.5H733.92Q729.11,335.69,724.28,340Z" transform="translate(-80.3 -128.33)"/><path class="cls-215" d="M695.15,360.43H746v-9.55H710.81A130.75,130.75,0,0,1,695.15,360.43Z" transform="translate(-80.3 -128.33)"/><path class="cls-216" d="M729.62,380.65c-8.78,8.66-25.59,11.28-31.15,11.93h24.17a7.06,7.06,0,0,0,7-7.16Z" transform="translate(-80.3 -128.33)"/><polygon class="cls-6" points="685.8 219.84 677.44 220.7 671.85 215.9 670.22 216.59 670.96 218.64 665.16 216.01 660.15 217.41 657.69 223.94 659.78 230.78 666.44 232.46 674.35 230.17 685.83 229.5 685.8 219.84"/><path class="cls-9" d="M761.14,344.89l26.45-8.26c5.69-1.77,11.43-3.44,17.09-5.33,7.11-2.38,5.58-7.35,10.14-13.1,10.25-13,21.74-26.73,37.83-30.47a9.1,9.1,0,0,1,4.88-.12c3,1,4.47,4.49,4.16,7.6s-2,5.88-3.68,8.52c-9.07,14.29-18.6,31.68-30.72,43.61-5.45,5.36-17.24,5.23-24.79,6.53l-45.77,7.9Z" transform="translate(-80.3 -128.33)"/></g></g></svg>