<svg id="Layer_3" data-name="Layer 3" xmlns="http://www.w3.org/2000/svg" viewBox="0 0 393.89 314.43"><defs><style>.cls-1{fill:#62aadb;}.cls-2,.cls-4{fill:none;}.cls-2{stroke:#000;stroke-miterlimit:10;stroke-width:1.66px;}.cls-3{fill:#00246b;}</style></defs><g id="Layer_4" data-name="Layer 4"><path class="cls-1" d="M384.69,147.1a10.71,10.71,0,0,1-6.39,8.36l-96,40.85A10.63,10.63,0,1,1,274,176.74l74.15-31.55-74.28-30.55a10.62,10.62,0,0,1,4.05-20.45A10.47,10.47,0,0,1,282,95l96.45,39.68A10.59,10.59,0,0,1,384.69,147.1Z" transform="translate(-54.05 -94.19)"/><path class="cls-1" d="M237.06,192.27a10.59,10.59,0,0,1-9.81,6.57,10.44,10.44,0,0,1-4.05-.8l-96.48-39.69a11.55,11.55,0,0,1,.13-20.78l96-40.86a10.64,10.64,0,0,1,8.34,19.58L157,147.84l74.27,30.54A10.63,10.63,0,0,1,237.06,192.27Z" transform="translate(-54.05 -94.19)"/><line class="cls-2" x1="138.77" y1="100.89" x2="138.75" y2="100.89"/><path class="cls-3" d="M315.56,192.44l20-8.32v51.15s-.39,5.62-16.6,12.17l-61.05,24.49s-3.46,1.7-9.16,0l-71.1-27.88a13.54,13.54,0,0,1-5.08-6V186.28l17.71,7.39.62,35,61.78,23.73,63.31-25Z" transform="translate(-54.05 -94.19)"/><path class="cls-3" d="M117.48,330v8.8a3,3,0,0,1-3,3h-21a1,1,0,0,0-1,1v59.82a3.73,3.73,0,0,1-3.74,3.73H79.63a2.69,2.69,0,0,1-2.7-2.69V342.77a1,1,0,0,0-1-1H57.05a3,3,0,0,1-3-3V330A2,2,0,0,1,56,328h59.51A2,2,0,0,1,117.48,330Z" transform="translate(-54.05 -94.19)"/><path class="cls-3" d="M154.8,383.56c1.63-.32,4.17-2.65,5.2-5.87,1.5-3-1-10.41-2.42-13.64s-6.5-8.59-10.88-10.47l-.19-.07c-3.14-2.05-12.81-2.58-18.84-1.6a16.86,16.86,0,0,0-4.84,1.58c-15.48,7.67-26.67,31.2-8.7,47.53,13.85,12.57,31.51,6.66,39.89,2.64a5,5,0,0,0,2.11-7.11l-1.31-2.17a4.64,4.64,0,0,0-5.7-1.93c-2.76,1.12-7.17,2.36-14.18,2.68-9.09.85-11.42-7.34-12-10.48a1,1,0,0,1,1-1.17C129.52,383.56,153.37,383.87,154.8,383.56ZM125.33,370c8.17-9.37,15.06-3.26,17.78,0a1,1,0,0,1-.79,1.69H126.1A1,1,0,0,1,125.33,370Z" transform="translate(-54.05 -94.19)"/><path class="cls-4" d="M142.32,371.73H126.1a1,1,0,0,1-.77-1.71c8.17-9.37,15.06-3.26,17.78,0A1,1,0,0,1,142.32,371.73Z" transform="translate(-54.05 -94.19)"/><path class="cls-3" d="M209.89,398a5.06,5.06,0,0,1-2.89,6.75c-7.94,2.89-23.93,6.61-35.56-4.52C155.38,384.84,169,362,169,362s10-17.31,36-8.15a5.64,5.64,0,0,1,3.18,7.79h0a6.15,6.15,0,0,1-6.72,3.36c-6.35-1.28-17.48-2.12-20.57,6.77-4.38,12.66,3.59,20.5,3.59,20.5s3.47,5.59,18.34,1.37a5.47,5.47,0,0,1,6.5,3.09Z" transform="translate(-54.05 -94.19)"/><path class="cls-3" d="M269.64,368.32v31.1a6,6,0,0,1-6,6h-4.52a5.65,5.65,0,0,1-5.65-5.65V364.28s0,.08-.06.08h-10S235,364.11,233,368.9h0L233,401a5.34,5.34,0,0,1-5.34,5.34H222a5.33,5.33,0,0,1-5.33-5.33V330.25a5,5,0,0,1,5-5H228a5,5,0,0,1,5,5v23.51c0,1-.62.78,0,0,1.59-2,5.9-2.64,8.67-2.64h10.78A17.19,17.19,0,0,1,269.64,368.32Z" transform="translate(-54.05 -94.19)"/><path class="cls-3" d="M323.11,403.1c-9.06,4.09-14.94,7.35-37.35,1.1a3.73,3.73,0,0,1-2.52-4.81l1.46-4.23a3.69,3.69,0,0,1,4.79-2.28c6.41,2.44,20.09,6.19,27.95-2.28a1.94,1.94,0,0,0,.21-.29c5.14-9.26-15.95-20.42-23.52-24.06a15.83,15.83,0,0,1-5.42-4.17c-3.77-4.58-9.28-13.94-2.72-24.3a25.35,25.35,0,0,1,24.65-12.49s7.6,1.24,12.69,2.58a3.74,3.74,0,0,1,2.57,4.84l-1.18,3.44a4.29,4.29,0,0,1-5,2.79c-5.84-1.34-16.92-2.84-20.93,3.63-5.55,8.91,6.92,14.79,6.92,14.79s21.44,10.74,24,20C332.35,385.06,332.21,398.19,323.11,403.1Z" transform="translate(-54.05 -94.19)"/><path class="cls-3" d="M442.12,405.85c-6.44,2.78-14.1,3.83-28.51-2.68a2.77,2.77,0,0,1-1.42-3.6l2-4.55a2.67,2.67,0,0,1,3.63-1.35c4.35,2.16,13.42,5.7,19.1,1a2.14,2.14,0,0,0,.76-2.2c-1.42-5.11-14.23-10.54-18.46-12.2a5.4,5.4,0,0,1-2.37-1.82c-2.38-3.25-7.65-12-2.19-19.38,6.92-9.8,18.62-7.62,18.62-7.62s5.18.38,8.82,1a3.12,3.12,0,0,1,2.51,3.59l-1,5.49a2.66,2.66,0,0,1-3.53,2.06c-3.94-1.43-10.76-3.29-13.84-.39a1.54,1.54,0,0,0-.25.32c-3.71,5.94,3.82,8.9,3.82,8.9s15.27,7.31,17.11,13.6C448.79,391.27,448.59,402.5,442.12,405.85Z" transform="translate(-54.05 -94.19)"/><path class="cls-3" d="M290.16,258.54h5.58a3.66,3.66,0,0,1,3.66,3.66v46.06a3.88,3.88,0,0,1-3.88,3.88h-5.59a3.77,3.77,0,0,1-3.77-3.77V262.54a4,4,0,0,1,4-4Z"/><circle class="cls-1" cx="292.01" cy="243.29" r="8.63"/><path class="cls-3" d="M392,352.14c-11.19-.49-15.82.57-15.82.57s-5.82,1.39-8.84,3.58a3,3,0,0,0-.89,3.68l2.33,5.1a2.57,2.57,0,0,0,3.55,1.23c4.34-2.21,13.58-5.92,19-.84a1,1,0,0,1,.32.77v5.52a1,1,0,0,1-1,1c-4.94,0-26.18.62-28.42,15.3-1.5,15.47,9.47,18.24,9.47,18.24a21.11,21.11,0,0,0,20.57-4,1,1,0,0,1,1.56.23l1.23,2.08a3.51,3.51,0,0,0,3,1.71h3.62a2.59,2.59,0,0,0,2.6-2.6V365.78S403.91,352.32,392,352.14Zm-.48,39c-1.36,1.5-8,8.12-15.4,4.15a1.16,1.16,0,0,1-.41-.35c-4.67-6.18,4.67-11.43,7.71-12.05l.15,0c1.6-.08,5.38,0,7.19,0a1,1,0,0,1,1,1v6.57A1,1,0,0,1,391.52,391.15Z" transform="translate(-54.05 -94.19)"/><path class="cls-4" d="M391.77,383.9v6.57a1,1,0,0,1-.25.68c-1.36,1.5-8,8.12-15.4,4.15a1.16,1.16,0,0,1-.41-.35c-4.67-6.18,4.67-11.43,7.71-12.05l.15,0c1.6-.08,5.38,0,7.19,0A1,1,0,0,1,391.77,383.9Z" transform="translate(-54.05 -94.19)"/></g></svg>